<?xml version="1.0" standalone="no"?>
<!DOCTYPE svg PUBLIC "-//W3C//DTD SVG 20010904//EN"
 "http://www.w3.org/TR/2001/REC-SVG-20010904/DTD/svg10.dtd">
<svg version="1.0" xmlns="http://www.w3.org/2000/svg"
 width="920.000000pt" height="405.000000pt" viewBox="0 0 920.000000 405.000000"
 preserveAspectRatio="xMidYMid meet">

<g transform="translate(0.000000,405.000000) scale(0.100000,-0.100000)"
fill="#000000" stroke="none">
<path d="M1721 3552 c-11 -16 -25 -40 -30 -53 -18 -49 -113 -194 -130 -201
-10 -3 -43 -47 -72 -97 -70 -119 -94 -121 -149 -14 -18 36 -34 49 -70 58 -3 1
-16 6 -30 12 -14 6 -67 21 -118 34 l-94 24 -19 -24 c-33 -40 -63 -51 -95 -35
-15 8 -29 12 -32 9 -3 -3 -16 5 -29 17 l-23 21 -57 -59 c-195 -202 -196 -204
-198 -380 0 -77 -5 -117 -14 -128 -7 -9 -11 -27 -9 -41 3 -14 2 -28 -2 -30 -4
-3 -10 -32 -14 -66 -4 -33 -11 -70 -16 -82 -5 -12 -16 -69 -24 -126 -13 -84
-19 -106 -37 -119 -18 -12 -20 -21 -14 -58 5 -37 3 -47 -18 -70 -22 -23 -24
-32 -19 -96 5 -68 -11 -148 -30 -148 -4 0 -8 -9 -8 -20 0 -11 5 -20 10 -20 6
0 10 -24 10 -54 0 -39 7 -66 22 -93 39 -66 56 -97 78 -142 17 -36 23 -41 35
-31 28 23 49 2 91 -92 22 -49 31 -49 208 2 77 22 154 42 172 46 42 8 58 26 51
60 -4 22 5 33 66 82 l70 56 -32 26 c-23 20 -31 35 -31 58 0 18 5 32 11 32 19
0 120 -88 138 -119 17 -31 209 -200 227 -201 5 0 48 14 95 31 169 63 237 70
260 27 6 -10 46 -45 90 -77 l79 -58 107 27 c60 15 133 35 164 44 l57 17 6 48
c4 30 14 55 27 67 24 22 39 47 44 76 10 50 37 118 46 112 5 -3 9 -9 9 -14 0
-4 22 -46 49 -92 26 -45 63 -116 82 -155 32 -71 51 -88 63 -58 9 25 22 17 49
-33 l27 -49 -43 -13 c-23 -8 -49 -19 -57 -25 -8 -6 -31 -19 -51 -28 -20 -9
-42 -23 -49 -32 -7 -8 -18 -15 -26 -15 -7 0 -42 -29 -77 -64 -81 -82 -99 -129
-81 -222 12 -65 34 -111 59 -120 8 -3 19 -22 26 -42 14 -42 83 -140 105 -149
22 -8 16 -23 -10 -23 -13 0 -75 -9 -138 -19 -63 -11 -172 -23 -243 -26 -200
-9 -230 -14 -272 -42 -21 -14 -56 -34 -78 -44 -62 -28 -74 -42 -81 -92 -6 -40
-4 -48 19 -69 14 -13 29 -36 32 -51 4 -15 25 -41 47 -58 37 -30 45 -32 156
-39 64 -4 130 -13 147 -19 22 -9 54 -10 135 -1 58 6 236 12 395 15 286 4 321
7 380 39 17 9 35 16 42 16 6 0 35 12 63 26 54 27 52 27 193 8 37 -5 57 -1 94
16 l47 22 33 -38 c31 -38 34 -39 95 -39 48 0 70 5 93 22 17 12 55 29 85 38 30
9 62 21 70 26 34 21 42 21 56 0 20 -28 66 -51 101 -51 20 0 36 -10 56 -34 15
-19 27 -40 27 -45 0 -6 4 -11 8 -11 4 0 13 -13 19 -30 14 -37 53 -53 110 -47
50 5 98 42 131 101 13 23 63 79 111 126 48 47 94 97 103 111 16 25 23 27 105
31 48 3 91 3 95 1 4 -2 -2 -18 -12 -36 -29 -47 -26 -93 8 -125 24 -23 41 -50
46 -72 7 -31 58 -60 107 -60 29 0 144 33 165 48 5 4 23 25 40 47 16 22 34 45
40 50 6 6 30 38 53 73 41 60 57 72 76 53 9 -8 180 25 225 43 10 4 22 -7 38
-37 35 -66 73 -102 138 -132 70 -33 165 -36 233 -9 47 18 51 16 67 -29 7 -23
23 -38 55 -54 53 -27 75 -24 149 21 47 29 70 35 160 45 160 17 230 38 392 116
24 11 31 11 50 -4 49 -37 124 -51 268 -51 147 0 152 -2 164 -52 3 -15 17 -39
29 -54 34 -40 117 -45 177 -13 67 37 81 46 93 58 6 6 20 11 32 11 11 0 41 11
67 24 l47 24 16 -24 c8 -13 15 -26 15 -29 0 -4 6 -13 14 -21 8 -7 23 -25 33
-38 22 -27 111 -56 175 -56 69 0 138 23 201 67 57 41 108 100 121 140 4 12 31
57 60 101 30 44 62 104 71 133 10 30 23 61 30 69 7 8 16 26 20 40 4 14 11 30
16 36 4 5 15 35 23 66 8 31 27 75 43 98 39 58 73 120 67 120 -3 0 2 10 10 22
9 13 16 43 16 71 0 44 4 54 40 89 22 22 40 47 40 54 0 8 5 14 10 14 20 0 10
61 -15 88 -14 15 -37 50 -51 79 -16 31 -35 54 -48 57 -112 30 -233 -48 -417
-266 -20 -24 -41 -53 -48 -66 -6 -12 -18 -22 -25 -22 -15 0 -66 62 -66 80 0
17 -140 153 -173 168 -43 19 -101 14 -161 -13 -30 -14 -61 -25 -68 -25 -21 0
-88 -67 -88 -89 0 -11 -4 -22 -9 -25 -4 -3 -7 -16 -4 -28 6 -36 -10 -52 -36
-38 -12 6 -57 12 -99 12 -122 2 -384 -9 -420 -17 -27 -6 -38 -4 -60 16 -32 28
-92 63 -92 53 0 -3 -6 -2 -12 3 -24 19 -113 42 -188 49 -41 3 -82 12 -90 19
-8 7 -36 20 -62 30 -27 10 -48 20 -48 22 0 2 15 11 33 19 65 31 85 45 135 93
28 27 54 62 58 76 4 18 18 32 41 42 56 23 82 14 128 -42 51 -64 144 -127 209
-141 153 -35 215 -37 345 -15 98 17 127 25 138 41 8 11 34 25 58 31 24 6 52
19 62 29 11 10 29 21 41 24 12 4 22 12 22 17 0 5 5 9 11 9 7 0 42 24 78 53 36
30 81 60 99 67 20 8 44 30 59 54 14 23 59 74 100 115 96 97 156 189 172 266 7
33 17 69 21 80 26 62 27 269 1 330 -5 11 -14 40 -21 65 -17 67 -48 129 -88
180 -47 58 -200 209 -277 273 -33 27 -62 53 -65 56 -3 3 -23 21 -44 39 -35 30
-43 33 -80 28 -28 -5 -54 -1 -79 9 -30 13 -51 13 -119 5 -120 -15 -126 -16
-140 -27 -16 -12 -49 -13 -63 -2 -6 4 -55 9 -110 11 l-100 2 -51 -37 c-28 -20
-58 -37 -66 -37 -8 0 -19 -5 -25 -11 -16 -16 -43 2 -78 54 -33 50 -66 71 -140
88 -27 7 -69 21 -93 31 -33 14 -48 15 -64 7 -11 -6 -60 -9 -111 -8 -51 1 -110
-3 -132 -9 -22 -6 -116 -16 -210 -23 -93 -6 -175 -15 -180 -20 -6 -4 -23 -6
-38 -5 -19 2 -31 -3 -42 -21 l-16 -24 -39 37 c-22 21 -37 40 -35 43 8 7 -97
111 -112 111 -19 0 -326 -122 -341 -135 -7 -7 -20 -37 -28 -69 -8 -31 -28 -79
-44 -107 -17 -27 -30 -57 -30 -65 0 -8 -9 -32 -19 -53 -11 -21 -17 -48 -14
-60 4 -15 1 -21 -11 -21 -9 0 -16 8 -16 18 -1 30 -38 102 -54 102 -8 0 -20 9
-26 21 -7 11 -27 27 -46 35 -25 10 -36 23 -40 43 -4 17 -16 33 -29 39 -13 6
-25 21 -27 34 -3 19 -13 25 -68 36 -36 8 -72 17 -80 20 -8 3 -18 4 -23 4 -4
-1 -24 7 -44 18 -21 11 -46 20 -56 20 -10 0 -27 4 -37 10 -30 16 -44 4 -106
-96 -32 -51 -61 -94 -64 -94 -4 0 -26 22 -49 49 -24 27 -60 56 -81 65 -21 8
-41 20 -45 26 -8 13 -110 60 -131 60 -8 0 -44 14 -79 30 -35 17 -69 30 -75 30
-6 0 -27 7 -48 17 -20 9 -41 15 -45 14 -4 0 -21 6 -38 15 -17 9 -40 14 -50 11
-11 -3 -22 -1 -25 4 -3 5 -16 7 -29 5 -14 -3 -27 0 -31 5 -3 6 -20 9 -38 8
-17 -1 -39 2 -49 6 -21 9 -130 1 -149 -11 -12 -8 -18 -10 -53 -17 -8 -2 -18
-6 -21 -10 -4 -4 -14 -7 -21 -7 -13 0 -50 -15 -141 -58 -21 -9 -58 -47 -95
-97 l-62 -82 -48 30 c-34 21 -47 35 -47 52 0 27 -25 49 -90 82 -8 4 -58 34
-110 67 -52 32 -103 59 -113 58 -9 0 -30 -9 -45 -20 -15 -10 -81 -45 -146 -77
-93 -46 -123 -66 -138 -92 -11 -18 -26 -33 -33 -33 -26 0 -96 -45 -132 -83
l-37 -40 -22 29 c-13 16 -29 36 -36 44 -7 8 -31 41 -53 74 -22 32 -47 68 -55
80 -43 62 -73 94 -85 90 -7 -3 -22 10 -35 31 -12 19 -29 43 -38 52 -10 9 -27
29 -38 45 l-22 29 -21 -29z m75 -129 c21 -32 65 -95 96 -139 32 -45 58 -90 58
-100 0 -11 7 -29 15 -40 12 -19 12 -27 -4 -70 -10 -27 -16 -54 -14 -60 2 -7
-3 -56 -12 -110 -9 -55 -20 -167 -25 -250 -5 -83 -14 -162 -19 -177 -6 -16 -7
-27 -1 -27 16 0 57 44 65 70 4 14 13 32 21 40 7 9 27 47 44 85 17 39 38 84 46
100 8 17 34 79 59 140 44 108 44 110 26 130 -19 20 -19 21 30 81 36 46 64 69
113 93 35 17 71 42 80 56 10 16 70 52 156 95 l140 70 124 -81 124 -80 -24 -55
c-13 -31 -22 -59 -19 -63 2 -5 25 -16 50 -25 28 -11 45 -24 45 -34 0 -9 18
-75 39 -147 31 -105 37 -135 28 -158 -5 -17 -7 -53 -2 -85 4 -32 8 -78 9 -104
1 -55 14 -74 39 -56 25 20 26 172 1 368 -3 25 -1 86 4 136 9 88 11 94 68 180
l59 89 115 52 c109 49 119 52 200 53 100 0 321 -39 376 -67 10 -6 34 -13 52
-17 19 -3 46 -14 61 -25 14 -11 53 -27 86 -36 33 -10 72 -26 87 -36 14 -11 31
-19 38 -19 6 0 35 -22 63 -49 40 -38 61 -69 87 -130 18 -45 37 -81 42 -81 4 0
8 19 8 43 0 37 10 58 71 148 39 57 73 106 75 108 2 2 61 -13 130 -34 102 -32
128 -43 135 -61 4 -13 18 -28 29 -34 26 -14 100 -170 100 -212 0 -16 -14 -92
-31 -170 -25 -114 -28 -145 -20 -170 9 -25 8 -36 -4 -54 -17 -27 -19 -53 -5
-103 5 -20 14 -69 21 -108 6 -40 15 -73 21 -73 18 0 52 52 76 115 46 122 133
393 161 501 16 61 36 125 45 142 9 17 16 37 16 44 0 7 19 57 42 110 l42 98 91
36 c49 20 112 45 138 55 l49 19 77 -75 c67 -65 79 -82 87 -122 l9 -47 43 57
c23 31 52 59 65 61 12 3 92 12 177 20 85 9 180 18 210 22 30 3 101 6 157 7 56
1 105 5 108 9 4 4 17 2 28 -4 11 -5 55 -20 98 -32 l79 -21 44 -69 c32 -50 46
-83 51 -122 3 -30 9 -54 13 -54 9 0 48 60 56 85 3 11 43 45 88 76 l83 57 72
-7 c47 -4 78 -13 91 -24 21 -19 25 -19 155 17 71 20 137 20 180 2 18 -7 47
-11 65 -8 27 4 45 -6 128 -69 128 -98 125 -96 172 -159 47 -64 84 -155 106
-267 15 -72 15 -89 1 -193 -28 -202 -57 -261 -200 -410 -45 -47 -89 -98 -99
-113 -9 -15 -29 -33 -44 -40 -15 -6 -54 -32 -87 -57 -102 -79 -184 -131 -233
-147 -26 -9 -52 -22 -58 -29 -6 -8 -62 -22 -124 -33 l-113 -19 -119 24 c-98
19 -128 29 -166 57 -58 41 -137 153 -146 206 -3 21 -13 44 -22 51 -12 11 -15
34 -13 127 3 109 2 114 -23 140 -31 34 -53 115 -38 143 5 10 10 27 10 37 0 11
19 46 43 78 57 81 113 175 121 205 4 14 19 51 33 83 13 32 23 61 20 64 -3 2
-20 -6 -37 -18 -19 -15 -51 -26 -83 -29 l-52 -5 -13 -50 c-7 -27 -15 -75 -16
-105 -2 -30 -8 -68 -15 -83 -6 -16 -11 -39 -11 -51 0 -13 -9 -52 -20 -87 -12
-35 -25 -94 -29 -130 -5 -36 -14 -76 -20 -88 -7 -12 -11 -56 -10 -99 1 -43 -3
-87 -8 -98 -14 -27 -9 -76 8 -86 8 -4 37 -13 64 -21 l50 -14 -66 -30 c-57 -26
-68 -36 -79 -67 -14 -44 -87 -109 -176 -159 l-65 -36 -97 56 c-53 31 -101 60
-105 64 -5 4 -13 51 -17 105 -5 55 -13 146 -19 203 -6 57 -8 108 -4 114 4 7 8
18 10 27 10 56 22 158 27 231 3 48 10 99 16 113 12 32 12 102 1 131 -5 11 -5
25 -1 30 5 6 -3 23 -17 39 -27 32 -57 36 -123 16 -52 -15 -62 -13 -102 25 -20
19 -39 35 -41 35 -6 0 -47 -133 -47 -153 0 -8 -11 -35 -24 -60 -14 -25 -32
-83 -40 -130 -9 -47 -23 -103 -30 -124 -9 -26 -11 -45 -5 -56 7 -11 4 -27 -8
-49 -9 -18 -16 -39 -15 -45 2 -7 -4 -51 -12 -98 l-15 -86 31 -28 30 -27 -26
-51 c-14 -29 -57 -84 -95 -122 -68 -69 -75 -73 -187 -113 l-117 -41 -41 49
c-23 27 -55 64 -72 83 l-30 33 -45 -22 c-47 -24 -79 -48 -79 -61 0 -4 24 -22
54 -40 109 -65 119 -161 24 -232 -51 -38 -112 -34 -262 18 -75 25 -166 60
-202 76 -36 17 -115 41 -175 56 -61 14 -124 35 -143 48 -19 13 -94 43 -168 68
-128 43 -202 80 -353 173 -38 24 -95 57 -126 73 l-56 30 -28 -91 c-42 -135
-98 -188 -197 -188 -61 0 -117 32 -192 109 l-66 69 0 84 c0 59 6 103 20 143
11 32 20 69 20 83 0 24 -25 62 -40 62 -4 0 -10 -34 -14 -77 -4 -42 -14 -89
-22 -104 -8 -15 -14 -55 -14 -88 l0 -60 -152 -158 c-83 -87 -154 -159 -158
-161 -10 -4 -140 247 -150 292 -6 26 -6 79 -2 132 5 49 6 108 4 132 l-4 43
-35 -7 c-19 -4 -64 -16 -101 -29 -56 -19 -70 -27 -84 -56 -22 -45 -68 -185
-75 -229 -3 -19 -12 -43 -20 -52 -9 -10 -23 -41 -33 -70 l-17 -52 -129 -32
-129 -32 -70 51 c-135 97 -124 85 -113 124 12 45 4 53 -16 15 -13 -25 -24 -31
-78 -42 -35 -6 -105 -25 -156 -42 l-93 -29 -90 72 c-73 60 -96 85 -128 144
-42 76 -142 223 -152 224 -13 2 -69 -159 -69 -196 0 -11 -5 -24 -12 -31 -9 -9
-5 -19 17 -42 20 -20 26 -33 19 -38 -95 -60 -115 -78 -112 -104 2 -23 -4 -31
-37 -48 -21 -11 -48 -20 -60 -20 -11 0 -63 -14 -115 -30 -52 -16 -95 -28 -96
-27 -1 1 -22 40 -47 87 -60 114 -66 161 -34 274 20 70 23 94 15 118 -9 25 -7
33 11 52 15 16 21 35 21 68 0 28 6 50 15 58 8 7 17 28 21 49 3 20 12 61 20 92
7 30 21 107 29 169 9 63 25 155 36 205 23 104 23 99 14 145 -14 72 17 136 113
239 l88 94 43 -25 c38 -23 47 -24 79 -15 21 6 49 21 64 35 25 23 29 24 80 12
29 -6 81 -21 115 -31 60 -20 63 -22 98 -85 l35 -65 -24 -42 c-13 -23 -30 -62
-36 -87 -7 -25 -19 -58 -26 -73 -14 -26 -12 -34 31 -130 26 -56 58 -128 73
-159 14 -32 28 -58 32 -58 4 0 10 62 14 138 5 107 3 149 -9 192 l-15 55 30 25
c19 16 31 39 36 64 17 95 107 263 146 274 11 3 43 46 80 108 33 57 63 104 67
104 4 0 25 -26 47 -57z m4158 -898 c10 -7 16 -17 13 -22 -5 -8 -29 -212 -32
-275 -1 -20 -6 -43 -13 -50 -13 -16 -5 -273 8 -273 3 0 9 -47 15 -114 7 -84
21 -108 75 -138 55 -30 80 -52 80 -68 0 -12 50 -54 80 -68 8 -4 29 -16 45 -27
17 -11 39 -24 50 -29 28 -12 45 -34 37 -46 -9 -13 -42 -34 -64 -41 -14 -5 -23
-21 -43 -74 -1 -3 -7 -18 -13 -33 -7 -16 -12 -33 -12 -38 0 -5 -20 -9 -45 -9
-25 0 -53 -4 -63 -9 -86 -47 -113 -55 -135 -41 -57 36 -84 43 -154 43 -51 0
-78 -4 -90 -15 -36 -32 -60 -31 -132 5 -41 20 -92 37 -127 42 -33 4 -67 14
-76 22 -10 9 -41 18 -68 21 l-51 5 7 68 c6 62 4 72 -16 103 -13 18 -36 42 -52
52 -31 21 -36 34 -14 34 14 0 38 -23 110 -104 41 -46 41 -46 210 14 117 41
120 43 193 118 41 43 83 97 94 122 11 25 26 57 34 71 13 23 12 27 -16 54 -25
23 -29 33 -23 54 4 14 8 59 9 99 2 46 9 81 19 97 10 16 14 34 10 50 -3 14 -2
31 3 38 13 16 33 92 37 142 5 56 16 95 38 130 10 17 18 44 18 61 0 46 18 56
54 29z m-2085 -904 c9 -3 48 -25 86 -48 44 -26 115 -56 190 -79 75 -22 139
-49 170 -70 31 -21 74 -39 110 -46 33 -7 62 -13 63 -14 2 -1 -5 -11 -16 -22
-11 -11 -23 -38 -27 -59 l-6 -40 -46 24 c-52 26 -109 29 -177 11 -38 -10 -46
-9 -60 5 -49 48 -211 17 -313 -60 l-32 -25 -47 39 c-41 33 -55 39 -112 43 -62
5 -66 7 -83 40 -24 44 -77 84 -143 109 -46 17 -72 19 -241 15 -105 -3 -211 -6
-237 -8 l-47 -3 110 118 110 118 72 -70 c40 -39 95 -82 122 -95 129 -62 311
-1 331 111 3 16 9 34 13 40 5 5 14 27 20 47 l12 37 81 -56 c45 -30 89 -58 97
-62z m4706 -104 c24 -20 25 -25 15 -52 -6 -17 -27 -46 -46 -66 -26 -27 -37
-48 -43 -87 -4 -29 -30 -94 -59 -150 -28 -54 -64 -134 -81 -178 -60 -161 -104
-260 -136 -304 -18 -25 -50 -78 -70 -118 -62 -120 -150 -182 -257 -182 -81 0
-135 15 -164 47 -31 33 -33 55 -13 136 20 81 33 167 25 167 -3 0 -12 -15 -19
-32 -26 -62 -102 -143 -165 -176 -33 -18 -66 -32 -73 -32 -7 0 -42 -18 -78
-39 -87 -52 -110 -57 -143 -32 -32 25 -41 75 -21 114 18 36 15 39 -25 28 -17
-5 -105 -11 -194 -12 -153 -3 -166 -2 -210 20 -27 12 -48 26 -48 29 0 4 -4 13
-9 21 -7 11 -16 10 -52 -7 -131 -61 -181 -82 -244 -100 -74 -21 -288 -48 -304
-38 -5 3 -16 -5 -25 -19 -22 -33 -72 -58 -102 -51 -36 9 -58 60 -51 118 6 47
6 48 -16 34 -12 -8 -33 -17 -47 -21 -13 -4 -36 -16 -50 -26 -14 -9 -52 -20
-85 -24 -55 -5 -66 -3 -125 27 -75 39 -99 72 -107 153 -3 30 -7 55 -8 55 -2 0
-27 -11 -56 -25 -82 -37 -220 -66 -259 -55 -45 13 -59 3 -123 -92 -75 -110
-120 -158 -150 -158 -13 0 -38 -7 -55 -16 -27 -13 -36 -13 -59 -2 -16 7 -29
23 -31 34 -2 11 20 74 48 140 78 181 84 194 78 199 -3 3 -31 -8 -63 -25 -31
-16 -72 -30 -92 -30 -18 0 -48 -8 -66 -17 -22 -11 -58 -17 -119 -17 -77 -1
-89 -4 -112 -25 -14 -14 -26 -29 -26 -35 0 -7 -36 -47 -81 -91 -44 -44 -98
-106 -120 -137 -40 -59 -82 -89 -109 -80 -59 19 -68 94 -20 181 17 30 30 67
30 83 0 16 7 43 16 59 28 56 6 42 -42 -25 -26 -36 -51 -66 -55 -66 -4 0 -26
-16 -50 -36 -35 -29 -48 -35 -73 -30 -43 9 -59 33 -52 78 7 44 55 166 91 231
15 26 25 52 23 58 -2 7 -37 -42 -78 -107 -86 -138 -162 -224 -196 -224 -13 0
-57 -16 -100 -35 -84 -39 -115 -43 -138 -19 -26 25 -20 44 49 154 61 98 73
128 59 143 -14 13 -37 -10 -92 -92 -65 -98 -124 -161 -150 -161 -10 0 -27 -7
-38 -15 -24 -18 -55 -19 -79 -1 -11 8 -25 12 -32 9 -7 -3 -26 0 -42 6 -24 11
-36 8 -87 -14 -32 -15 -97 -41 -144 -58 -81 -30 -93 -31 -250 -33 -187 -2
-381 -9 -520 -19 -81 -6 -98 -4 -109 9 -11 13 -35 16 -118 16 -109 0 -154 13
-167 47 -9 21 34 63 64 63 11 0 40 15 64 33 l43 34 149 6 c82 4 229 18 327 33
149 22 193 33 265 64 47 20 87 41 89 46 1 5 -32 22 -75 38 -158 59 -252 148
-275 260 -12 60 -12 70 5 107 25 57 101 138 161 172 71 41 217 85 317 96 47 6
168 10 270 10 174 -1 188 -2 236 -25 69 -32 95 -63 101 -118 5 -43 7 -45 32
-39 14 3 36 10 49 14 45 17 70 9 120 -36 66 -60 74 -97 38 -183 -31 -74 -33
-91 -6 -67 11 10 20 24 20 32 0 7 14 40 30 73 17 33 30 68 30 79 0 26 88 97
138 111 82 23 109 23 145 1 41 -25 62 -26 110 -6 68 28 107 20 180 -38 22 -17
42 -26 47 -21 5 5 19 38 32 73 31 86 53 101 156 107 l82 5 48 -40 c50 -42 149
-85 175 -76 24 10 115 -35 138 -66 11 -16 23 -29 27 -29 4 0 15 18 25 39 15
32 27 42 64 55 60 21 78 20 111 -3 15 -11 59 -25 97 -31 76 -14 210 -70 230
-97 11 -15 16 -12 52 25 36 38 45 42 87 42 26 0 61 -6 79 -14 39 -16 87 -70
87 -97 0 -30 14 -23 38 19 28 50 49 68 100 86 33 12 48 13 67 4 14 -6 25 -15
25 -20 0 -4 6 -8 13 -8 7 0 25 40 42 91 32 98 56 128 120 149 40 13 82 3 150
-36 29 -16 64 -24 125 -29 47 -4 109 -14 137 -22 53 -14 138 -73 166 -114 l16
-21 33 23 c30 22 44 24 143 25 61 0 151 4 200 8 101 9 161 -2 190 -34 10 -11
23 -20 30 -20 16 0 55 98 55 139 0 44 38 78 131 115 70 28 73 28 103 12 46
-25 137 -116 153 -153 19 -47 16 -67 -17 -126 l-30 -53 26 -52 c14 -29 29 -52
33 -52 4 0 12 10 18 23 6 12 24 38 42 57 17 19 72 87 122 150 112 141 157 189
231 246 50 39 109 72 130 74 4 0 19 -10 33 -23z"/>
<path d="M1711 3306 c-19 -36 -44 -69 -57 -75 -47 -21 -120 -162 -144 -277 -8
-36 -17 -55 -29 -59 -17 -5 -17 -9 -4 -68 10 -41 13 -84 8 -127 -3 -36 -10
-108 -14 -160 -9 -107 -40 -242 -55 -237 -5 2 -22 39 -37 83 -14 43 -59 147
-99 229 -90 187 -104 230 -85 259 7 11 20 46 29 76 8 30 24 69 34 85 19 30 19
30 -4 76 -24 49 -19 46 -146 78 -36 9 -58 0 -58 -24 0 -5 4 -3 10 5 8 13 18
12 77 -4 37 -9 72 -21 77 -26 5 -5 -1 -6 -14 -3 -22 6 -22 5 -6 -18 15 -23 14
-25 -4 -25 -11 0 -20 6 -20 14 0 8 5 10 13 6 9 -6 9 -5 0 8 -7 8 -10 18 -6 21
3 4 2 7 -4 7 -15 0 -10 -317 6 -354 6 -16 10 -35 7 -42 -3 -7 0 -15 7 -18 9
-3 8 -5 -1 -5 -7 -1 -11 -5 -8 -9 3 -5 7 -21 10 -37 5 -28 -15 -71 -27 -58
-11 11 -8 23 5 20 7 -1 13 8 14 20 1 12 -2 21 -5 18 -4 -2 -6 20 -5 48 2 40 0
47 -7 29 -6 -15 -13 -21 -21 -16 -10 6 -10 5 -1 -7 8 -10 9 -19 3 -25 -7 -7
-4 -17 10 -29 27 -25 26 -43 -2 -19 -13 11 -18 13 -13 4 13 -18 13 -40 0 -60
-7 -12 -6 -13 6 -3 13 11 15 5 13 -45 -1 -42 -5 -56 -15 -54 -9 2 -7 -3 4 -16
19 -21 19 -89 0 -85 -5 1 -10 -5 -10 -12 0 -10 4 -11 11 -6 8 7 11 -13 12 -64
1 -41 -3 -72 -8 -69 -4 3 -6 9 -3 14 3 5 1 11 -4 14 -13 8 -7 -22 7 -36 13
-13 17 -52 4 -44 -5 3 -9 -1 -9 -9 0 -8 4 -12 9 -9 8 5 7 -5 -6 -66 -2 -8 1
-20 6 -27 5 -7 7 -16 4 -21 -3 -6 1 -15 9 -22 8 -7 15 -17 15 -23 0 -18 -78
63 -91 94 -6 16 -15 29 -20 29 -10 0 27 -67 55 -98 12 -13 41 -60 66 -105 36
-64 60 -93 116 -139 l71 -59 49 19 c27 11 76 25 109 32 33 6 68 14 78 16 10 3
36 42 59 87 76 152 148 490 168 792 13 197 31 348 47 386 14 33 13 39 -1 62
-9 13 -15 29 -14 35 3 11 -119 192 -130 192 -4 0 -22 -29 -41 -64z m-519 -248
c-19 -19 -14 -32 6 -17 15 13 16 12 3 -3 -7 -10 -9 -18 -4 -18 15 0 12 -33 -5
-53 -14 -16 -14 -19 -2 -27 9 -6 10 -10 3 -10 -6 0 -10 -9 -8 -20 2 -11 0 -20
-4 -20 -7 0 -9 178 -2 200 0 2 6 -1 13 -8 9 -9 9 -15 0 -24z m-22 -354 c0 -8
-5 -12 -10 -9 -6 4 -8 11 -5 16 9 14 15 11 15 -7z m26 -89 c-24 -36 -20 -42
12 -14 l27 24 -27 -31 c-27 -29 -36 -47 -20 -41 4 1 8 -2 9 -8 0 -5 -3 -9 -8
-7 -5 1 -9 -2 -9 -8 0 -5 6 -10 13 -11 8 0 8 -2 -2 -6 -11 -5 -11 -7 0 -14 8
-5 9 -9 3 -9 -6 0 -9 -13 -6 -30 2 -17 9 -27 15 -23 6 4 7 1 1 -8 -14 -23 -16
-51 -2 -43 7 5 8 3 3 -6 -14 -23 -15 -131 -2 -123 8 5 8 2 -1 -9 -18 -23 -21
-94 -3 -90 10 2 12 -1 5 -10 -6 -7 -10 -32 -9 -54 0 -29 -4 -40 -12 -37 -7 3
-10 9 -7 14 3 6 1 15 -4 22 -5 7 -7 21 -5 32 9 38 10 350 1 362 -5 6 -5 14 0
16 4 3 7 25 6 49 -2 38 16 88 32 88 4 0 -1 -11 -10 -25z m16 -597 c-6 -6 -8
-18 -5 -27 5 -13 3 -14 -7 -4 -10 9 -10 15 -2 26 7 8 8 18 4 22 -4 5 -1 5 6 0
9 -5 10 -11 4 -17z"/>
<path d="M1183 2996 c0 -18 3 -24 9 -18 7 7 7 16 0 28 -8 14 -9 13 -9 -10z"/>
<path d="M1177 2115 c-4 -8 -3 -16 1 -19 4 -3 9 4 9 15 2 23 -3 25 -10 4z"/>
<path d="M2545 3286 c-74 -36 -107 -60 -127 -87 -14 -20 -38 -39 -53 -43 -28
-7 -105 -52 -105 -62 0 -2 19 6 43 20 74 43 110 36 84 -17 -5 -12 -4 -24 5
-35 9 -11 9 -14 1 -8 -9 5 -11 2 -6 -11 6 -16 5 -17 -13 -3 -18 14 -18 14 -5
-3 8 -10 14 -35 14 -55 -1 -32 0 -34 7 -12 6 18 7 13 5 -20 -2 -25 -4 -49 -4
-54 -1 -5 -9 -2 -18 5 -16 13 -17 12 -5 -3 17 -21 25 -91 9 -81 -6 3 -7 1 -3
-6 4 -6 9 -45 10 -86 2 -65 0 -73 -12 -62 -13 10 -13 9 -1 -10 9 -16 16 -19
21 -10 4 7 7 4 6 -8 0 -11 1 -27 3 -35 2 -8 -1 -14 -8 -15 -7 0 -18 -7 -25
-15 -11 -12 -11 -12 3 -2 14 10 15 3 15 -62 -1 -63 -3 -73 -15 -63 -12 10 -12
9 0 -10 8 -14 16 -18 20 -11 4 6 5 -4 4 -23 -2 -19 -4 -38 -4 -43 -1 -5 -9 -2
-18 5 -16 13 -16 12 -1 -9 9 -13 14 -33 12 -45 -4 -21 -4 -21 5 -2 9 18 10 17
8 -7 -1 -23 -5 -27 -22 -23 -18 5 -18 5 -2 -5 9 -6 14 -17 10 -23 -3 -7 4 -3
17 8 l23 20 -14 -25 c-20 -35 -38 -47 -89 -61 -25 -6 -39 -13 -33 -16 7 -3 41
5 75 16 74 24 151 42 193 44 27 2 30 -1 32 -33 5 -102 2 -255 -5 -262 -12 -12
10 -104 36 -150 12 -20 31 -56 43 -80 l22 -43 118 125 119 125 0 60 c0 34 4
65 9 70 12 14 31 153 31 231 0 60 3 69 39 117 l40 51 -30 40 c-21 29 -29 51
-29 82 0 24 -5 66 -11 94 -8 37 -8 64 0 94 9 38 7 57 -24 166 -20 67 -37 126
-40 130 -3 4 -29 18 -60 30 -30 12 -55 26 -55 30 0 4 11 33 25 65 14 32 25 59
23 60 -25 21 -171 105 -180 103 -7 -1 -58 -24 -113 -52z m-142 -201 c-3 -9 -8
-14 -10 -11 -3 3 -2 9 2 15 9 16 15 13 8 -4z m0 -65 c-3 -12 -8 -19 -11 -16
-5 6 5 36 12 36 2 0 2 -9 -1 -20z m0 -135 c-3 -9 -8 -14 -10 -11 -3 3 -2 9 2
15 9 16 15 13 8 -4z m-6 -47 c-3 -8 -6 -5 -6 6 -1 11 2 17 5 13 3 -3 4 -12 1
-19z m6 -38 c-3 -12 -8 -19 -11 -16 -5 6 5 36 12 36 2 0 2 -9 -1 -20z m-6 -52
c-3 -8 -6 -5 -6 6 -1 11 2 17 5 13 3 -3 4 -12 1 -19z m0 -50 c-3 -7 -5 -2 -5
12 0 14 2 19 5 13 2 -7 2 -19 0 -25z m182 -4 c8 -18 8 -30 1 -39 -7 -9 -7 -21
0 -39 5 -15 10 -43 10 -62 0 -33 -1 -34 -42 -34 -24 0 -59 -4 -79 -9 l-37 -8
40 80 c40 80 76 137 88 137 4 0 12 -12 19 -26z m-168 -31 c13 -16 12 -17 -3
-4 -17 13 -22 21 -14 21 2 0 10 -8 17 -17z m-5 -118 c-1 -8 -5 -17 -8 -21 -5
-4 -4 16 1 34 3 9 9 -1 7 -13z m-3 -60 c-7 -21 -12 -19 -10 4 0 11 5 18 9 15
4 -3 5 -11 1 -19z m8 -42 c13 -16 12 -17 -3 -4 -10 7 -18 15 -18 17 0 8 8 3
21 -13z m-8 -98 c-3 -9 -8 -14 -10 -11 -3 3 -2 9 2 15 9 16 15 13 8 -4z"/>
<path d="M3808 3293 c7 -3 16 -2 19 1 4 3 -2 6 -13 5 -11 0 -14 -3 -6 -6z"/>
<path d="M3885 3270 c28 -12 60 -26 73 -31 19 -7 21 -12 12 -29 -6 -11 -8 -20
-4 -20 3 0 1 -7 -6 -15 -7 -8 -17 -12 -24 -8 -7 4 -6 1 1 -9 7 -8 11 -18 8
-21 -3 -4 -2 -5 2 -2 3 3 13 -3 21 -13 10 -13 10 -10 -1 9 -15 25 -15 28 3 44
12 11 20 13 25 5 3 -5 10 -8 14 -6 4 3 8 -1 8 -9 0 -13 -3 -13 -17 0 -22 20
-32 1 -17 -35 8 -22 14 -49 18 -85 0 -5 -2 -20 -4 -32 -3 -12 1 -27 9 -34 11
-9 12 -15 2 -27 -7 -8 -13 -46 -14 -88 -1 -66 1 -73 15 -62 13 10 14 10 4 -2
-10 -11 -10 -17 2 -30 14 -15 14 -19 -2 -31 -16 -12 -17 -12 -5 2 10 13 10 18
-1 28 -8 6 -17 8 -20 5 -3 -3 -4 8 -2 25 2 17 0 31 -6 31 -6 0 -6 7 1 20 6 11
7 19 1 18 -5 -2 -9 2 -9 7 0 6 3 9 7 8 4 -1 7 14 7 32 0 18 -4 32 -7 29 -4 -2
-10 0 -13 5 -4 5 -2 12 3 15 5 4 12 2 16 -4 4 -6 11 -8 16 -4 5 3 7 10 3 15
-3 5 -9 7 -14 4 -5 -3 -12 0 -16 6 -4 7 -3 9 4 5 6 -3 9 1 7 11 -1 10 2 26 6
35 6 11 4 21 -5 30 -10 10 -11 20 -4 34 9 19 9 19 -6 0 -9 -11 -17 -17 -17
-13 -1 4 -2 12 -3 17 0 6 -5 10 -9 11 -19 2 -16 -9 8 -31 24 -22 36 -68 15
-55 -6 4 -8 10 -5 14 2 5 -5 17 -18 27 l-22 19 19 -22 c11 -13 15 -23 11 -23
-4 0 -1 -8 8 -18 10 -10 14 -22 10 -26 -5 -4 -8 -12 -8 -17 0 -5 -3 -9 -7 -9
-5 0 -10 0 -13 0 -3 0 -1 9 4 19 8 14 7 22 -7 32 -14 11 -15 11 -5 -1 8 -8 9
-19 3 -30 -7 -13 -3 -23 15 -40 20 -19 23 -26 12 -38 -6 -8 -11 -17 -9 -19 1
-1 0 -3 -3 -3 -3 0 -7 0 -10 0 -3 0 -1 9 4 19 8 14 7 22 -7 32 -14 11 -15 11
-5 -1 8 -8 9 -19 3 -30 -7 -13 -4 -22 10 -35 28 -25 25 -43 -2 -19 -14 12 -18
13 -10 3 6 -9 8 -19 4 -23 -4 -4 -1 -6 7 -4 7 2 15 -7 17 -20 3 -17 0 -21 -8
-16 -7 4 -5 -2 5 -13 27 -31 20 -39 -10 -12 -15 13 -22 17 -15 8 6 -9 8 -20 4
-24 -4 -5 -1 -5 6 -1 17 10 27 -21 12 -39 -7 -8 -17 -12 -24 -8 -7 4 -7 1 1
-7 8 -9 9 -19 3 -31 -6 -10 -6 -20 -2 -23 5 -3 9 0 10 7 2 29 9 48 20 59 7 7
12 18 12 24 0 7 3 15 8 17 4 3 7 -5 7 -18 0 -13 -3 -21 -7 -19 -12 8 -28 -61
-18 -81 8 -17 4 -33 -17 -56 -23 -25 -23 -27 -6 -40 16 -12 17 -12 6 2 -11 13
-10 19 5 31 26 22 46 33 38 20 -3 -6 -2 -13 4 -17 5 -3 10 -11 10 -18 0 -6 -6
-3 -13 7 -12 17 -14 17 -28 -1 -13 -16 -13 -17 4 -4 10 8 17 9 17 3 0 -21 -71
-66 -190 -121 l-25 -11 25 6 c35 8 166 70 200 94 16 12 52 28 79 36 28 8 53
19 56 24 4 6 25 20 47 31 91 46 178 164 178 242 0 53 -60 199 -99 240 -34 37
-123 85 -190 103 -29 8 -65 23 -80 33 -23 16 -50 25 -131 46 -14 3 -2 -3 25
-15z m118 -63 c3 -7 -3 -13 -13 -13 -10 0 -16 6 -13 13 3 7 9 13 13 13 4 0 10
-6 13 -13z m2 -73 c9 -15 12 -23 6 -20 -11 7 -35 46 -28 46 3 0 12 -12 22 -26z
m-12 -451 c-5 -12 -3 -14 8 -8 8 4 11 5 7 0 -4 -4 -2 -15 5 -24 10 -14 10 -14
-5 -3 -9 8 -19 9 -22 4 -6 -11 22 -27 39 -23 6 2 7 -1 2 -5 -4 -4 -18 -9 -30
-11 -15 -2 -18 0 -9 6 11 7 11 9 -1 14 -9 3 -14 14 -12 24 2 10 4 24 4 31 1 6
5 12 11 12 5 0 6 -7 3 -17z m42 -103 c3 -6 -1 -7 -9 -4 -18 7 -21 14 -7 14 6
0 13 -4 16 -10z"/>
<path d="M5480 3230 l-94 -38 -38 -88 c-21 -48 -38 -92 -38 -98 0 -6 -9 -33
-19 -61 -11 -27 -27 -79 -36 -115 -21 -80 -133 -437 -146 -465 -5 -11 -15 -40
-22 -65 -14 -45 -42 -85 -107 -149 -19 -19 -27 -30 -16 -24 10 6 44 35 74 64
31 30 51 46 44 37 -11 -14 -10 -18 5 -27 15 -10 14 -10 -9 -7 -20 3 -25 1 -21
-10 3 -8 1 -14 -5 -14 -5 0 -13 -7 -16 -16 -5 -14 -4 -15 9 -4 17 14 21 0 4
-17 -6 -6 -12 -30 -13 -52 -1 -22 -5 -43 -9 -47 -3 -4 0 -16 8 -28 20 -28 19
-41 -2 -25 -17 13 -17 13 -3 -5 8 -11 15 -20 15 -21 0 -1 -7 -10 -15 -21 -14
-18 -14 -18 3 -5 17 13 24 4 10 -15 -5 -5 0 -1 10 10 18 19 18 30 1 70 -5 14
-4 17 4 12 9 -5 10 -1 3 16 -4 13 -7 31 -6 40 2 10 0 20 -5 23 -4 3 -6 14 -3
25 3 11 10 17 16 13 6 -4 7 -1 2 8 -5 8 -5 11 0 7 4 -4 15 -2 24 4 13 10 13 9
-1 -7 -12 -15 -14 -25 -7 -38 7 -12 6 -19 -4 -22 -9 -4 -12 -16 -9 -35 2 -17
9 -27 15 -23 6 4 7 1 1 -8 -12 -19 -13 -89 -1 -82 6 3 7 1 3 -6 -4 -6 -10 -10
-14 -8 -4 2 -15 -4 -24 -15 -10 -10 -13 -18 -7 -18 5 0 7 -5 3 -12 -4 -7 -3
-8 5 -4 6 4 9 12 6 17 -3 5 2 6 12 3 15 -5 16 -4 3 5 -9 7 -10 11 -3 11 19 0
26 -20 9 -26 -9 -3 -13 -11 -9 -17 3 -5 2 -7 -4 -4 -9 6 -93 -48 -93 -59 0 -6
14 2 53 28 15 11 31 18 36 16 5 -2 41 -42 80 -91 58 -70 76 -85 89 -78 9 5 46
19 82 31 52 18 78 36 132 89 37 36 73 79 79 94 10 24 9 31 -11 52 -21 22 -22
30 -16 87 4 35 11 91 15 124 4 34 13 69 20 78 9 11 10 20 3 29 -7 8 -3 32 14
82 13 39 24 85 24 103 0 18 14 68 30 111 48 123 80 242 80 296 0 28 7 79 16
115 9 36 15 85 15 110 -2 87 -11 108 -64 155 -29 25 -56 45 -62 44 -5 -1 -53
-18 -105 -39z m-400 -1066 c0 -8 -5 -12 -10 -9 -6 4 -8 11 -5 16 9 14 15 11
15 -7z m-30 -140 c0 -8 -5 -12 -10 -9 -6 4 -8 11 -5 16 9 14 15 11 15 -7z m10
-70 c0 -8 -5 -12 -10 -9 -6 4 -8 11 -5 16 9 14 15 11 15 -7z"/>
<path d="M3942 3210 c-9 -15 -9 -21 1 -26 6 -4 9 -4 5 1 -4 4 -3 14 4 22 6 7
9 15 7 18 -3 2 -10 -4 -17 -15z"/>
<path d="M6240 3197 c-94 -10 -100 -11 -60 -18 25 -3 52 -4 60 -2 12 4 12 3 2
-5 -8 -5 -13 -12 -13 -16 3 -24 0 -28 -12 -17 -10 8 -14 7 -14 -4 0 -7 5 -13
10 -12 5 1 12 -4 15 -12 3 -9 0 -11 -8 -6 -9 6 -9 3 -1 -13 14 -26 14 -35 1
-27 -6 4 -7 -1 -3 -11 5 -13 3 -15 -7 -9 -10 6 -11 4 -4 -6 5 -8 9 -30 10 -50
1 -20 4 -48 8 -63 5 -20 3 -26 -5 -21 -8 6 -8 2 0 -13 14 -26 14 -35 1 -27 -6
4 -7 -1 -3 -11 5 -13 3 -15 -7 -9 -10 6 -11 4 -4 -6 5 -8 9 -30 10 -50 1 -20
4 -48 8 -63 5 -20 3 -26 -5 -21 -8 6 -8 2 0 -13 14 -26 14 -35 1 -27 -6 4 -7
-1 -3 -11 5 -13 3 -15 -7 -9 -10 6 -11 4 -4 -6 5 -8 9 -30 10 -50 1 -20 4 -48
8 -63 5 -20 3 -26 -5 -21 -8 6 -8 2 0 -13 14 -26 14 -35 1 -27 -6 4 -7 -1 -3
-11 5 -13 3 -15 -8 -9 -12 7 -12 6 -1 -7 7 -9 11 -30 8 -49 -3 -19 -3 -28 0
-21 3 6 10 10 14 7 5 -3 6 7 3 22 -3 16 -5 35 -4 43 2 15 3 145 2 185 0 11 0
56 0 100 0 44 0 89 0 100 0 11 0 56 0 100 0 44 0 89 0 100 -2 48 6 101 17 120
6 11 12 15 12 9 0 -6 -3 -14 -7 -18 -12 -11 -11 -256 0 -249 5 3 5 -3 -1 -13
-12 -23 -11 -194 1 -187 5 3 4 -3 -1 -13 -12 -23 -11 -194 1 -187 5 3 4 -3 -1
-14 -13 -24 -11 -144 2 -136 5 4 6 0 0 -8 -12 -20 -13 -230 -1 -222 6 4 7 1 1
-8 -13 -20 -12 -229 1 -221 5 3 5 -1 -2 -9 -14 -17 -13 -101 1 -111 7 -5 5 -8
-5 -8 -19 0 -33 26 -19 35 9 5 6 43 -5 53 -2 3 1 12 8 20 9 13 9 14 0 8 -14
-8 -18 6 -6 18 4 3 8 13 9 22 2 11 -1 12 -10 5 -7 -6 -17 -7 -21 -3 -5 4 -4 1
0 -7 14 -24 15 -82 1 -74 -8 5 -8 3 0 -8 6 -8 10 -21 8 -29 -1 -8 -5 -25 -8
-37 -3 -13 3 -28 15 -39 10 -9 19 -12 19 -6 0 6 -7 15 -16 20 -11 6 -13 11 -5
16 6 4 11 2 11 -4 0 -6 5 -8 10 -5 6 3 10 -3 10 -14 0 -32 -36 -46 -67 -26
-13 9 -27 15 -29 12 -3 -3 11 -14 30 -26 l35 -22 43 22 c89 46 148 108 148
159 0 11 7 20 15 20 21 0 19 17 -3 22 -16 5 -17 12 -10 79 5 41 11 114 14 164
3 49 9 94 13 100 5 5 11 38 14 72 4 34 14 81 23 105 9 23 19 66 24 95 4 28 13
66 18 85 12 35 35 194 36 242 l1 30 68 -3 c63 -2 72 0 118 31 31 21 49 40 49
54 0 57 -24 143 -54 189 -32 49 -35 51 -107 67 -86 18 -239 20 -389 5z"/>
<path d="M7475 3130 c-22 -4 -51 -11 -65 -15 -14 -4 -44 -11 -67 -15 -23 -5
-51 -15 -61 -21 -16 -10 -23 -9 -43 10 -25 23 -66 38 -76 27 -4 -3 2 -6 12 -6
10 0 38 -17 64 -37 25 -21 42 -32 37 -25 -7 12 31 33 57 31 7 0 -1 -5 -16 -11
-26 -9 -28 -13 -25 -61 2 -39 7 -51 17 -49 12 3 12 0 2 -11 -6 -8 -10 -27 -7
-41 3 -14 1 -28 -3 -30 -4 -3 -7 12 -7 34 1 21 -3 36 -8 33 -5 -4 -6 -1 -2 5
3 6 3 13 -2 16 -9 6 -8 -61 1 -71 4 -3 1 -13 -6 -21 -9 -13 -9 -14 1 -8 9 5
12 -4 12 -34 0 -23 4 -39 9 -35 6 3 8 -4 6 -17 -3 -13 -12 -27 -22 -33 -9 -5
-38 -30 -63 -55 -25 -25 -34 -35 -20 -24 43 36 72 52 148 79 82 29 99 27 173
-21 40 -27 59 -73 80 -191 13 -77 4 -137 -25 -166 -8 -7 -32 -50 -54 -94 -28
-54 -57 -94 -90 -124 -53 -48 -184 -129 -207 -129 -7 0 -17 -5 -20 -10 -9 -14
38 -3 90 22 29 14 35 15 20 3 -11 -9 -19 -19 -17 -23 1 -4 -3 -7 -9 -7 -6 0
-18 -11 -27 -25 l-14 -25 21 25 c11 14 21 19 21 12 0 -7 3 -11 8 -9 4 3 7 -21
7 -53 0 -32 -4 -56 -8 -53 -5 3 -6 19 -4 37 2 17 0 40 -5 51 -8 18 -8 18 -4
-2 2 -13 0 -25 -4 -28 -11 -7 6 -66 21 -75 7 -5 5 -9 -6 -13 -9 -4 -14 -3 -11
2 3 4 -4 17 -17 27 -22 19 -22 19 -6 -1 9 -11 15 -27 14 -36 -2 -9 3 -16 11
-16 7 0 11 3 9 7 -2 4 2 7 10 7 8 0 11 -5 7 -11 -11 -18 -13 -48 -3 -41 5 3
13 0 17 -7 4 -7 3 -10 -1 -5 -5 4 -20 -3 -33 -15 -14 -13 -22 -18 -18 -11 3 6
1 15 -5 19 -7 4 -9 3 -6 -2 9 -15 -5 -30 -38 -43 l-30 -11 35 5 c19 3 53 14
75 24 22 10 60 26 85 35 25 9 96 54 159 101 62 47 120 85 127 85 7 0 21 14 29
30 9 17 51 65 94 108 132 130 164 194 192 390 14 100 8 163 -27 274 -32 103
-79 175 -160 241 -109 91 -143 112 -173 109 -16 -2 -45 4 -66 12 -21 9 -40 15
-44 15 -3 -1 -24 -5 -46 -9z m-160 -119 c3 -5 2 -12 -3 -15 -5 -3 -9 1 -9 9 0
17 3 19 12 6z m15 -135 c0 -2 -8 -10 -17 -17 -16 -13 -17 -12 -4 4 13 16 21
21 21 13z m-15 -45 c3 -5 2 -12 -3 -15 -5 -3 -9 1 -9 9 0 17 3 19 12 6z m30
-69 c-3 -3 -11 0 -18 7 -9 10 -8 11 6 5 10 -3 15 -9 12 -12z"/>
<path d="M2368 3123 c6 -2 9 -10 6 -15 -4 -7 -2 -8 5 -4 13 9 5 26 -12 25 -9
0 -8 -2 1 -6z"/>
<path d="M3630 2931 c0 -10 -7 -38 -15 -61 -8 -24 -13 -45 -11 -47 6 -7 121
54 135 71 12 14 8 19 -30 36 -56 25 -79 25 -79 1z"/>
<path d="M3800 2946 c0 -2 7 -7 16 -10 8 -3 12 -2 9 4 -6 10 -25 14 -25 6z"/>
<path d="M3804 2868 l-19 -23 25 20 c14 11 27 21 29 22 2 2 0 3 -6 3 -5 0 -18
-10 -29 -22z"/>
<path d="M1152 2805 c4 -4 3 -14 -3 -21 -7 -9 -6 -14 3 -20 7 -4 10 -4 6 1 -4
4 -3 14 3 21 7 9 6 14 -3 20 -7 4 -10 4 -6 -1z"/>
<path d="M7275 2777 c-26 -30 -27 -39 -1 -22 14 9 23 21 20 26 -6 11 -7 11
-19 -4z"/>
<path d="M3936 2728 c3 -5 10 -6 15 -3 13 9 11 12 -6 12 -8 0 -12 -4 -9 -9z"/>
<path d="M4320 2662 c-56 -58 -94 -86 -150 -114 -90 -44 -136 -67 -215 -109
-33 -18 -82 -39 -108 -48 -27 -9 -49 -21 -49 -26 -1 -6 32 -30 73 -54 41 -24
144 -90 229 -146 85 -56 182 -117 215 -135 33 -19 82 -50 109 -69 l49 -35 -6
35 c-3 19 -14 66 -25 104 -25 88 -58 267 -52 280 2 6 4 97 4 202 1 106 1 193
1 192 0 0 -34 -35 -75 -77z m13 -389 c9 -43 22 -107 31 -143 8 -36 13 -67 11
-69 -7 -7 -80 36 -148 88 -38 28 -81 58 -98 66 -16 9 -29 19 -29 23 0 4 20 16
43 26 23 11 47 26 52 34 13 16 83 50 106 51 13 1 20 -17 32 -76z"/>
<path d="M7353 2686 c-35 -13 -70 -30 -79 -37 -32 -26 -64 -89 -64 -123 0 -20
-7 -57 -16 -83 -14 -41 -22 -119 -27 -279 -1 -24 6 -51 16 -67 l18 -27 42 21
c117 60 170 111 230 223 23 43 48 88 55 100 13 22 11 65 -6 167 -13 71 -25 95
-62 114 -36 19 -32 19 -107 -9z m127 -229 c0 -12 -10 -38 -23 -57 -13 -19 -29
-50 -36 -67 -8 -18 -17 -33 -22 -33 -12 0 -11 27 1 35 6 3 10 25 10 48 0 31 7
48 27 69 32 34 43 35 43 5z"/>
<path d="M3939 2617 c7 -7 7 -16 -1 -26 -10 -13 -10 -14 2 -4 19 17 21 40 4
40 -10 0 -11 -4 -5 -10z"/>
<path d="M2380 2611 c0 -6 4 -13 10 -16 6 -3 7 1 4 9 -7 18 -14 21 -14 7z"/>
<path d="M7132 2540 c0 -14 2 -19 5 -12 2 6 2 18 0 25 -3 6 -5 1 -5 -13z"/>
<path d="M1144 2466 c1 -8 5 -18 8 -22 4 -3 5 1 4 10 -1 8 -5 18 -8 22 -4 3
-5 -1 -4 -10z"/>
<path d="M6220 2341 c-7 -13 -7 -22 0 -26 5 -3 10 -11 10 -17 0 -6 -7 -5 -17
3 -14 12 -16 12 -8 0 5 -8 10 -43 11 -77 1 -34 5 -72 9 -84 5 -16 4 -20 -5
-15 -9 6 -9 3 -1 -13 14 -26 14 -35 1 -27 -6 4 -7 -1 -3 -11 5 -13 3 -15 -8
-9 -12 7 -12 6 -1 -7 7 -9 11 -30 8 -49 -3 -19 -3 -28 0 -21 3 6 10 10 14 7 5
-3 6 7 3 22 -3 16 -5 35 -4 43 6 61 5 197 -1 193 -5 -2 -8 3 -8 12 0 9 4 14 8
11 5 -3 8 15 8 40 -1 24 -2 44 -3 44 -1 0 -7 -9 -13 -19z"/>
<path d="M3885 2220 c28 -16 73 -50 100 -76 28 -25 41 -40 30 -33 -11 8 -23
18 -26 22 -3 5 -6 -14 -5 -42 1 -37 4 -47 13 -40 6 6 10 19 8 31 -4 16 -2 18
11 8 10 -9 11 -16 4 -25 -6 -8 -5 -16 3 -25 10 -12 9 -12 -4 -2 -16 12 -29 7
-29 -10 0 -5 6 -6 13 -2 9 6 9 4 -1 -8 -8 -10 -9 -19 -3 -22 5 -3 8 -14 6 -24
-1 -9 3 -24 9 -32 6 -8 1 -6 -12 4 -12 11 -22 14 -22 8 0 -6 4 -13 10 -17 5
-3 7 -12 3 -20 -3 -9 0 -21 6 -28 8 -10 7 -14 -4 -14 -8 0 -11 5 -8 10 3 6 1
7 -5 3 -9 -5 -9 0 -2 19 6 15 6 24 1 20 -19 -11 -20 14 -2 36 18 23 18 25 3
43 -12 14 -13 17 -3 11 9 -5 7 5 -7 27 -12 19 -20 37 -17 40 3 2 -1 5 -9 5
-12 0 -12 -3 0 -22 8 -12 11 -25 7 -30 -5 -4 -2 -5 5 -1 16 10 11 -26 -8 -49
-11 -14 -11 -16 1 -13 8 2 13 -3 11 -12 -10 -41 -10 -50 -1 -45 5 4 9 -1 9
-10 0 -10 -5 -13 -12 -9 -7 4 -5 -2 5 -13 13 -15 15 -23 7 -28 -8 -5 -7 -12 4
-23 8 -10 15 -20 15 -24 1 -5 4 -7 9 -5 4 1 6 5 5 8 -1 3 5 6 13 6 11 0 11 -4
-3 -21 -10 -12 -18 -22 -19 -24 0 -1 -15 3 -32 9 -18 6 -29 16 -25 22 3 6 1 7
-5 3 -6 -4 -35 5 -64 20 -69 34 -57 22 26 -26 36 -21 125 -58 198 -82 73 -24
144 -53 159 -65 16 -14 62 -30 120 -43 51 -12 121 -32 154 -46 33 -14 128 -50
210 -80 167 -61 203 -64 243 -19 25 30 28 62 7 91 -17 25 -122 89 -226 138
-80 38 -255 143 -371 223 -40 28 -93 61 -118 73 -25 13 -108 64 -185 115 -157
103 -227 145 -241 145 -5 0 14 -14 41 -30z m95 -236 c0 -8 -5 -12 -10 -9 -6 4
-8 11 -5 16 9 14 15 11 15 -7z m27 -140 c0 -10 -10 -11 -35 -5 -2 1 -1 5 2 9
8 13 33 10 33 -4z"/>
<path d="M1046 2227 c3 -10 9 -15 12 -12 3 3 0 11 -7 18 -10 9 -11 8 -5 -6z"/>
<path d="M1061 2184 c0 -11 3 -14 6 -6 3 7 2 16 -1 19 -3 4 -6 -2 -5 -13z"/>
<path d="M3958 2122 c-4 -12 -2 -20 3 -16 5 3 9 0 9 -7 0 -7 2 -10 5 -7 3 3 2
16 -3 28 l-9 24 -5 -22z"/>
<path d="M5060 2095 c0 -8 4 -15 10 -15 5 0 7 7 4 15 -4 8 -8 15 -10 15 -2 0
-4 -7 -4 -15z"/>
<path d="M3936 2003 c-6 -14 -5 -15 5 -6 7 7 10 15 7 18 -3 3 -9 -2 -12 -12z"/>
<path d="M6225 1970 c-4 -6 -12 -7 -18 -4 -9 5 -9 4 0 -6 6 -7 10 -18 9 -24
-2 -6 -1 -8 1 -3 3 4 8 5 12 3 4 -3 7 6 7 20 0 27 -2 29 -11 14z"/>
<path d="M3930 1886 c0 -2 8 -10 18 -17 15 -13 16 -12 3 4 -13 16 -21 21 -21
13z"/>
<path d="M3935 1830 c-4 -6 -2 -9 3 -8 5 2 19 -8 32 -22 l22 -25 -22 33 c-23
35 -26 37 -35 22z"/>
<path d="M7270 1786 c0 -2 7 -7 16 -10 8 -3 12 -2 9 4 -6 10 -25 14 -25 6z"/>
<path d="M8458 1441 c-62 -47 -198 -189 -198 -207 0 -5 -17 -28 -39 -52 -36
-39 -62 -72 -86 -111 -6 -9 -25 -31 -43 -50 -18 -19 -30 -36 -28 -39 3 -3 -6
-18 -20 -35 -13 -16 -31 -45 -39 -64 -17 -40 -31 -37 -40 10 -4 17 -25 67 -46
111 -40 80 -47 110 -29 121 6 3 19 25 30 48 29 59 19 89 -52 159 -66 65 -62
65 -158 19 -53 -25 -55 -27 -55 -66 0 -22 -8 -55 -18 -74 -9 -19 -17 -38 -17
-43 0 -7 -136 -287 -159 -328 -33 -56 -171 -351 -171 -363 0 -9 5 -19 10 -22
11 -7 70 30 83 52 4 7 16 13 25 13 9 0 30 7 46 15 15 8 35 15 42 15 25 0 90
47 121 87 38 47 78 113 106 176 11 26 25 47 30 47 6 0 16 8 23 17 22 32 29 4
28 -120 -1 -92 -6 -139 -22 -192 -32 -109 -13 -132 111 -134 55 -1 62 2 118
45 33 25 66 60 74 78 28 67 36 82 66 121 16 22 40 63 53 90 40 82 116 267 116
279 0 15 78 164 90 171 6 4 10 16 10 27 0 12 7 30 17 40 9 10 13 21 9 25 -4 4
-11 1 -16 -7 -5 -8 -12 -12 -15 -8 -8 7 75 136 105 163 21 19 26 35 11 35 -4
0 -37 -22 -73 -49z"/>
<path d="M3100 1339 c-206 -6 -232 -9 -304 -33 -43 -14 -87 -26 -97 -26 -9 0
-26 -10 -36 -23 -10 -13 -24 -22 -30 -20 -19 7 -103 -77 -127 -127 -20 -40
-21 -51 -12 -96 6 -28 18 -58 26 -67 8 -8 26 -30 40 -48 37 -48 99 -83 221
-126 60 -21 109 -42 109 -48 -1 -21 -80 -74 -170 -113 -65 -27 -122 -44 -180
-52 -47 -7 -119 -18 -161 -25 -71 -13 -309 -30 -371 -27 -15 1 -30 -3 -33 -8
-4 -6 5 -10 19 -10 30 0 43 -17 19 -24 -10 -3 -48 -10 -85 -17 -38 -6 -68 -13
-68 -16 0 -2 64 -3 143 -2 79 2 148 -1 155 -5 7 -4 16 -5 21 -1 5 3 12 1 15
-4 8 -13 320 -4 324 9 2 5 8 10 13 10 6 0 7 -5 4 -11 -5 -7 5 -8 32 -3 21 4
65 6 98 5 150 -7 204 -3 248 18 24 12 50 21 58 21 8 0 37 12 64 25 28 14 55
25 62 25 22 0 83 62 99 99 9 20 18 60 21 88 4 42 2 54 -11 59 -9 3 -16 13 -16
20 0 8 -7 17 -15 20 -8 4 -15 12 -15 18 0 22 -45 56 -73 56 -19 0 -27 5 -27
18 0 13 -9 17 -36 19 -19 1 -46 8 -58 17 -13 8 -39 18 -59 21 -20 4 -46 19
-60 35 -14 15 -31 30 -39 32 -20 8 -5 18 48 32 40 10 79 10 204 0 85 -6 174
-18 197 -25 37 -11 46 -11 85 7 50 22 78 44 78 60 0 6 13 38 30 70 33 66 35
73 19 107 -10 23 -78 61 -124 70 -11 2 -121 0 -245 -4z m-1040 -859 c0 -5 -4
-10 -10 -10 -5 0 -10 5 -10 10 0 6 5 10 10 10 6 0 10 -4 10 -10z"/>
<path d="M6349 1325 c-25 -13 -58 -86 -85 -185 -6 -25 -67 -186 -84 -225 -73
-166 -143 -381 -138 -427 4 -41 17 -42 43 -1 17 27 33 39 78 61 4 2 7 -4 7
-13 0 -15 6 -16 38 -10 20 4 66 9 102 11 73 3 191 33 248 62 20 11 72 37 115
57 90 43 149 106 203 218 78 162 42 298 -94 363 -41 19 -127 33 -214 35 -54 1
-71 6 -85 22 -19 21 -73 47 -95 47 -7 -1 -25 -7 -39 -15z m271 -269 c55 -25
64 -156 15 -215 -25 -29 -130 -103 -200 -139 -47 -25 -165 -65 -172 -59 -2 3
7 16 20 28 13 13 37 49 52 79 14 30 35 71 45 90 9 19 21 50 25 67 3 18 22 64
40 101 l33 69 59 -5 c32 -2 69 -9 83 -16z"/>
<path d="M6503 1003 c-3 -10 -26 -67 -51 -128 -24 -60 -47 -116 -50 -123 -8
-22 65 20 133 75 67 55 84 91 69 151 -8 35 -12 37 -52 40 -33 3 -44 -1 -49
-15z"/>
<path d="M4660 1289 c-33 -18 -36 -18 -48 -2 -20 27 -41 6 -67 -64 -12 -34
-29 -73 -37 -85 -8 -13 -24 -50 -36 -83 -18 -53 -32 -90 -55 -145 -4 -8 -18
-33 -32 -55 -13 -22 -38 -65 -54 -96 -16 -31 -41 -70 -55 -86 -14 -17 -26 -37
-26 -44 0 -8 -7 -23 -15 -33 -8 -11 -12 -29 -9 -41 3 -13 -7 -44 -27 -80 -26
-48 -48 -135 -34 -135 2 0 20 24 41 53 57 79 92 118 151 166 29 24 53 51 53
61 0 9 14 29 30 43 17 15 30 32 30 38 0 8 23 10 78 5 72 -6 121 2 158 26 6 4
37 10 70 13 44 4 70 13 101 35 23 17 46 30 52 30 6 0 11 5 11 10 0 6 6 10 14
10 22 0 85 69 107 116 12 28 18 56 15 85 -2 24 -4 51 -5 60 -1 9 -10 26 -21
39 -11 13 -20 27 -20 32 0 4 -13 8 -29 8 -17 0 -32 4 -36 9 -3 6 -20 8 -37 6
-20 -3 -39 2 -49 11 -9 8 -29 17 -45 20 -16 3 -37 13 -47 22 -10 9 -26 17 -35
17 -9 0 -23 12 -30 28 -15 32 -16 32 -62 6z m86 -250 c4 -8 26 -10 63 -6 44 5
61 2 79 -12 l24 -17 -40 -35 c-56 -49 -81 -69 -88 -69 -3 0 -20 -11 -37 -24
-18 -14 -66 -36 -108 -50 -42 -14 -84 -29 -94 -32 -27 -11 -9 34 27 64 30 26
108 125 108 138 0 10 42 54 51 54 4 0 11 -5 15 -11z"/>
<path d="M4710 945 c-18 -19 -31 -37 -28 -41 8 -7 91 40 108 61 10 13 8 15
-17 15 -20 0 -39 -11 -63 -35z"/>
<path d="M4010 1188 c-45 -10 -125 -72 -114 -89 2 -4 -9 -33 -26 -64 -16 -30
-30 -62 -30 -71 0 -8 -10 -32 -22 -53 -20 -36 -25 -38 -72 -39 -28 -1 -63 -5
-78 -8 -32 -7 -35 4 -10 37 36 48 72 141 72 184 0 25 -8 40 -36 64 -31 27 -40
31 -72 25 -20 -3 -52 -13 -71 -23 -32 -15 -35 -19 -37 -68 -1 -30 -12 -71 -25
-95 -12 -24 -29 -56 -37 -73 -8 -16 -36 -61 -61 -100 -81 -124 -179 -290 -175
-294 2 -2 12 3 21 11 10 9 23 14 29 11 6 -2 32 19 57 47 25 27 50 50 56 50 17
0 14 -7 -16 -41 -16 -17 -31 -40 -36 -52 -4 -13 8 -3 30 23 68 80 92 105 93
94 0 -7 -21 -40 -46 -74 -25 -34 -40 -58 -32 -54 19 12 56 58 98 122 45 68 97
134 114 144 7 4 28 -4 48 -18 29 -21 39 -23 61 -15 34 13 42 0 17 -32 -11 -14
-29 -45 -40 -68 -20 -44 -40 -80 -51 -89 -15 -14 -67 -110 -60 -110 6 0 31 18
57 40 44 39 71 48 44 15 -22 -27 0 -16 48 23 28 23 43 30 39 20 -12 -33 11
-18 48 30 44 57 125 181 125 190 0 4 25 38 55 76 37 46 61 87 71 125 9 31 32
82 50 114 39 67 41 77 15 77 -11 0 -23 5 -26 10 -7 12 -14 11 -75 -2z"/>
<path d="M4250 1181 c-40 -17 -45 -22 -47 -52 0 -19 -9 -56 -19 -84 -17 -50
-27 -72 -124 -280 -72 -154 -111 -266 -93 -264 5 0 25 22 45 49 25 33 43 47
53 44 9 -4 18 1 22 12 4 11 35 54 68 97 34 43 68 90 76 105 8 15 17 29 20 32
36 30 126 158 154 219 22 48 20 55 -27 93 -57 46 -74 50 -128 29z"/>
<path d="M5235 1193 c-32 -8 -44 -23 -51 -62 -4 -20 -15 -51 -26 -69 -10 -18
-18 -41 -18 -52 0 -10 -4 -22 -10 -25 -5 -3 -10 -12 -10 -20 0 -24 -71 -165
-96 -190 -13 -13 -24 -34 -24 -47 0 -13 -21 -63 -45 -113 -25 -49 -45 -95 -45
-101 0 -5 -9 -30 -21 -53 -11 -24 -18 -45 -15 -49 3 -3 6 0 6 6 0 17 62 45 70
31 9 -13 57 45 124 147 53 83 58 86 110 102 31 9 43 8 62 -4 17 -12 28 -13 43
-5 11 6 32 11 48 11 29 0 131 35 148 51 5 5 15 9 23 9 25 0 92 62 92 85 0 12
8 33 18 46 11 13 22 48 25 77 6 48 4 52 -15 52 -16 0 -18 3 -9 14 9 10 8 15
-4 20 -8 3 -15 11 -15 18 0 8 -12 19 -27 25 -97 42 -133 53 -187 59 -34 4 -73
15 -88 25 -27 20 -29 20 -63 12z m195 -212 c14 -4 33 -22 44 -45 l20 -38 -24
-18 c-26 -20 -247 -87 -256 -78 -3 3 2 12 10 20 8 9 31 46 51 83 20 38 38 72
41 77 6 9 78 9 114 -1z"/>
<path d="M5344 915 c-21 -33 -15 -38 27 -24 46 16 58 27 39 39 -26 16 -49 11
-66 -15z"/>
<path d="M7347 1173 c-7 -7 -127 -16 -192 -15 -117 3 -126 2 -143 -16 -10 -9
-23 -29 -29 -43 -9 -21 -8 -29 5 -42 12 -13 13 -21 5 -39 -7 -13 -19 -46 -27
-73 -9 -28 -34 -87 -56 -130 -22 -44 -40 -85 -40 -92 0 -7 -4 -13 -9 -13 -5 0
-19 -16 -32 -36 l-22 -37 24 -18 c21 -16 44 -19 190 -19 169 0 204 6 252 43
23 19 22 27 -5 27 -22 1 -22 1 -5 14 30 23 5 28 -130 25 -84 -2 -128 1 -130 8
-2 6 1 14 6 18 6 3 11 13 11 22 0 8 9 28 20 44 16 22 25 26 42 20 11 -4 42 -4
67 0 26 4 71 10 101 14 57 7 89 30 70 49 -6 6 -58 12 -115 14 -58 3 -105 8
-105 13 0 13 42 82 62 102 18 18 151 39 208 33 22 -3 89 36 98 57 2 4 10 7 18
7 22 0 17 14 -13 37 -25 18 -116 37 -126 26z"/>
<path d="M5752 1119 c-13 -5 -22 -15 -19 -21 2 -7 -3 -21 -11 -31 -8 -9 -17
-30 -18 -45 -2 -15 -13 -54 -24 -87 -37 -104 -70 -229 -70 -260 0 -43 31 -100
55 -100 10 0 30 -11 43 -24 18 -18 30 -22 50 -16 15 3 36 7 47 8 11 1 31 10
45 19 14 9 36 19 50 23 36 10 126 111 157 175 14 30 36 71 48 90 63 100 80
216 39 261 -17 19 -19 19 -30 4 -7 -10 -18 -14 -24 -10 -16 10 -50 -24 -50
-50 0 -13 -6 -25 -13 -28 -7 -2 -23 -36 -36 -73 -12 -38 -33 -89 -46 -114 -14
-25 -31 -59 -40 -77 -18 -38 -48 -68 -89 -89 -26 -13 -32 -13 -45 0 -21 22
-21 74 1 131 11 27 23 52 27 55 4 3 29 36 55 73 42 62 47 73 41 107 -4 21 -16
47 -28 58 -26 23 -82 33 -115 21z"/>
<path d="M3375 1002 c-68 -34 -71 -35 -120 -23 -50 12 -128 22 -279 37 -59 5
-77 4 -72 -4 4 -7 19 -12 34 -12 15 0 36 -6 47 -14 11 -7 39 -16 63 -20 56 -8
153 -82 199 -152 20 -30 37 -54 38 -54 5 0 121 193 144 238 12 23 20 42 19 41
-2 -1 -34 -17 -73 -37z"/>
<path d="M7456 1019 c-10 -6 -65 -15 -122 -19 -100 -9 -144 -21 -144 -40 0 -6
19 -10 43 -10 83 0 157 -35 157 -75 0 -8 -12 -29 -28 -45 -25 -29 -36 -33
-147 -50 l-120 -18 88 -1 c60 -1 100 -6 123 -17 19 -9 36 -15 39 -13 5 6 145
288 145 294 0 8 -14 5 -34 -6z"/>
</g>
</svg>
