<?xml version="1.0" standalone="no"?>
<!DOCTYPE svg PUBLIC "-//W3C//DTD SVG 20010904//EN"
 "http://www.w3.org/TR/2001/REC-SVG-20010904/DTD/svg10.dtd">
<svg version="1.0" xmlns="http://www.w3.org/2000/svg"
 width="1920.000000pt" height="960.000000pt" viewBox="0 0 1920.000000 960.000000"
 preserveAspectRatio="xMidYMid meet">

<g transform="translate(0.000000,960.000000) scale(0.100000,-0.100000)"
fill="#000000" stroke="none">
<path d="M14368 8253 c7 -3 16 -2 19 1 4 3 -2 6 -13 5 -11 0 -14 -3 -6 -6z"/>
<path d="M13528 8193 c7 -3 16 -2 19 1 4 3 -2 6 -13 5 -11 0 -14 -3 -6 -6z"/>
<path d="M4405 7968 c-44 -84 -105 -201 -136 -260 -46 -86 -72 -122 -131 -180
-64 -63 -84 -91 -138 -198 -34 -69 -69 -133 -78 -142 -21 -25 -64 -22 -89 5
-24 25 -74 124 -92 178 -10 30 -21 41 -59 57 -83 35 -255 81 -364 96 -26 4
-58 16 -71 27 -42 32 -65 24 -132 -46 -39 -41 -71 -65 -84 -65 -26 0 -77 27
-145 76 -27 19 -59 34 -70 32 -12 -2 -57 -48 -109 -113 -49 -60 -117 -142
-152 -181 -165 -184 -184 -233 -197 -494 -6 -138 -19 -255 -43 -400 -19 -113
-46 -284 -60 -380 -14 -96 -37 -236 -52 -310 -23 -122 -29 -139 -59 -173 -33
-36 -34 -40 -34 -121 0 -98 -9 -129 -52 -173 -33 -34 -33 -39 -2 -127 16 -46
16 -55 2 -120 -8 -39 -27 -104 -42 -145 -43 -118 -37 -232 20 -392 39 -107
180 -385 200 -393 9 -3 31 -1 50 6 27 9 36 9 50 -3 17 -14 114 -204 114 -225
0 -6 9 -19 20 -29 27 -24 69 -17 265 45 88 29 198 60 245 70 47 11 125 38 174
61 83 39 88 42 82 67 -19 83 -19 87 9 121 15 17 55 51 89 74 70 47 146 115
146 130 0 5 -27 36 -61 67 -61 57 -61 58 -54 101 4 24 9 46 11 48 7 7 54 -22
54 -32 0 -12 74 -77 104 -92 11 -5 40 -40 65 -78 25 -37 75 -92 111 -123 36
-31 70 -61 75 -68 20 -23 221 -193 241 -204 17 -9 32 -8 68 4 26 9 49 14 52
11 3 -3 30 8 61 24 30 16 61 29 68 29 7 0 61 16 121 35 59 19 126 35 148 35
50 0 132 -37 166 -75 14 -15 52 -48 85 -73 33 -25 86 -69 117 -99 68 -64 82
-66 224 -23 54 16 132 36 173 45 41 8 80 20 87 26 6 5 38 14 70 19 92 15 147
70 159 158 9 69 21 100 60 157 26 37 40 72 51 130 18 94 63 217 76 209 10 -7
58 -103 58 -118 0 -5 6 -17 14 -25 7 -9 55 -104 106 -211 126 -267 130 -275
130 -287 0 -20 40 -26 59 -9 33 30 49 19 91 -64 22 -44 40 -87 40 -95 0 -9
-12 -18 -30 -21 -16 -4 -35 -13 -41 -20 -6 -8 -25 -14 -41 -14 -36 0 -131 -47
-224 -111 -56 -39 -185 -162 -270 -260 -26 -29 -85 -189 -91 -244 -4 -36 -1
-66 9 -92 9 -21 19 -67 23 -103 8 -68 43 -143 75 -160 9 -5 27 -37 40 -72 12
-35 31 -72 41 -84 11 -11 19 -25 19 -31 0 -6 7 -13 15 -17 8 -3 15 -13 15 -21
0 -23 50 -92 104 -145 25 -24 46 -47 46 -50 0 -11 -86 -30 -170 -36 -47 -4
-89 -10 -95 -14 -16 -12 -67 -24 -105 -25 -19 -1 -64 -7 -100 -13 -93 -17
-281 -32 -388 -32 -146 0 -293 -18 -324 -41 -15 -10 -32 -19 -37 -19 -5 0 -31
-16 -57 -36 -68 -52 -106 -74 -129 -74 -11 0 -26 -9 -33 -20 -7 -11 -18 -20
-25 -20 -21 0 -62 -51 -81 -100 -24 -62 -15 -96 44 -158 32 -34 50 -62 50 -78
0 -44 26 -88 83 -140 79 -73 142 -89 314 -81 127 6 128 5 190 -24 87 -42 152
-45 513 -20 468 31 543 33 704 22 247 -18 341 2 637 138 88 40 169 71 187 71
18 0 67 -10 109 -22 141 -39 232 -29 336 39 l27 18 57 -59 c122 -127 182 -121
587 61 66 29 123 53 128 53 4 0 20 -18 34 -40 33 -49 76 -77 134 -86 101 -15
161 -70 204 -182 35 -92 82 -136 160 -152 42 -8 70 -9 107 -1 84 18 126 56
222 200 63 93 125 170 221 269 78 82 145 161 162 193 l29 54 120 6 c66 3 137
10 158 14 34 7 37 5 37 -14 0 -12 -11 -43 -25 -69 -44 -82 -32 -145 50 -264
19 -26 41 -70 50 -97 32 -96 115 -148 220 -137 143 15 258 61 329 132 57 57
147 182 221 306 l57 97 97 -1 c99 -1 132 5 263 48 44 14 93 24 115 22 35 -3
40 -7 78 -76 75 -137 160 -219 273 -264 50 -20 75 -23 192 -23 119 0 143 3
206 25 l71 26 33 -68 c69 -145 185 -192 313 -126 23 11 67 38 97 59 65 45 131
61 341 84 179 19 258 40 413 111 67 31 156 72 198 91 l77 36 69 -42 c128 -77
205 -91 437 -79 261 14 283 7 324 -103 37 -97 112 -166 199 -182 58 -11 123
11 277 97 177 99 270 146 307 157 38 10 62 -13 83 -78 22 -70 89 -144 157
-173 125 -54 321 -74 433 -45 164 43 278 152 446 430 127 210 166 299 420 970
34 88 85 205 114 260 37 69 61 132 78 201 26 106 56 174 117 264 57 84 72 118
72 165 0 50 -19 91 -63 135 -18 18 -42 60 -56 98 -31 85 -65 129 -117 153 -69
31 -187 18 -236 -26 -9 -8 -40 -27 -68 -43 -91 -50 -325 -278 -401 -391 -76
-113 -166 -233 -181 -241 -25 -13 -51 18 -99 120 -31 67 -54 100 -110 155 -39
38 -71 73 -71 77 0 13 -62 78 -75 78 -7 0 -32 17 -56 38 -84 74 -100 76 -244
31 -147 -45 -223 -89 -300 -171 -75 -79 -85 -99 -85 -171 0 -32 -6 -62 -16
-76 -18 -26 -23 -26 -177 5 -76 15 -98 16 -175 5 -48 -7 -98 -16 -112 -20 -14
-4 -90 -5 -170 -3 -219 5 -289 3 -328 -13 -56 -24 -79 -19 -131 30 -26 25 -51
45 -55 45 -5 0 -26 16 -49 35 -24 21 -67 44 -104 55 -35 11 -73 24 -84 30 -11
7 -84 18 -162 25 -78 8 -164 20 -192 26 -99 24 -245 104 -231 128 3 4 47 31
98 61 115 68 207 158 270 265 54 93 86 126 146 149 43 16 44 16 74 -9 16 -14
33 -25 37 -25 4 0 36 -41 71 -91 76 -108 117 -145 219 -198 225 -117 445 -154
692 -117 212 32 320 68 431 144 24 16 97 60 163 99 71 42 161 107 220 158 105
92 178 143 236 167 26 12 46 35 86 100 29 48 97 134 150 192 264 287 307 364
377 676 69 315 58 605 -34 881 -69 209 -163 368 -269 459 -102 88 -177 166
-203 210 -32 56 -117 137 -183 175 -27 16 -72 52 -100 79 -27 28 -81 79 -119
113 l-68 64 -87 -7 c-72 -5 -96 -3 -148 15 -76 26 -189 28 -283 5 -36 -8 -83
-18 -105 -21 -22 -3 -53 -16 -68 -29 -36 -30 -40 -30 -129 6 -41 16 -107 35
-146 41 -138 23 -278 -22 -390 -125 -64 -60 -123 -87 -150 -70 -9 6 -24 25
-32 41 -8 17 -32 48 -54 69 -21 22 -49 62 -61 90 -23 51 -41 64 -91 64 -40 0
-198 51 -282 90 l-82 39 -43 -18 c-36 -14 -63 -16 -192 -11 -114 4 -157 3
-178 -7 -15 -8 -103 -20 -195 -29 -92 -8 -194 -19 -227 -24 -98 -16 -235 -31
-320 -36 -107 -6 -120 -10 -149 -40 -30 -34 -67 -27 -105 19 -14 17 -66 72
-115 123 -49 51 -93 99 -98 108 -5 9 -23 23 -40 32 -33 17 -67 13 -107 -15
-14 -9 -82 -39 -151 -65 -69 -27 -141 -58 -160 -69 -19 -11 -65 -30 -103 -43
-93 -32 -121 -54 -145 -116 -11 -29 -37 -98 -58 -153 -20 -55 -52 -131 -69
-170 -18 -38 -40 -104 -50 -145 -10 -41 -27 -92 -37 -114 -12 -22 -17 -48 -14
-61 12 -48 -26 -79 -39 -32 -34 114 -84 207 -126 233 -8 5 -27 30 -42 55 -25
45 -74 79 -111 79 -17 0 -46 49 -46 79 0 22 -11 31 -55 46 -23 8 -32 19 -42
54 -14 48 -38 81 -60 81 -8 0 -132 41 -276 90 -203 70 -267 89 -283 81 -17 -7
-136 -188 -233 -353 -9 -16 -19 -28 -22 -28 -3 0 -23 25 -44 55 -59 87 -171
184 -274 239 -275 148 -742 318 -1026 373 -132 25 -363 23 -470 -5 -159 -42
-424 -200 -501 -298 -16 -20 -51 -75 -79 -122 -27 -47 -57 -89 -66 -95 -12 -8
-27 -2 -64 24 -97 70 -105 83 -80 141 5 13 -5 22 -45 43 -28 14 -53 32 -56 40
-3 7 -26 23 -52 35 -25 12 -71 43 -101 69 -31 27 -85 68 -121 91 -36 24 -81
57 -101 73 -47 37 -102 45 -165 23 -101 -34 -325 -173 -644 -399 -157 -111
-230 -172 -230 -192 0 -19 -48 -58 -64 -52 -8 3 -41 49 -73 102 -32 54 -118
187 -190 297 -73 111 -133 204 -133 208 0 4 -7 13 -15 20 -12 10 -19 10 -27 2
-27 -27 -47 -8 -144 143 -54 85 -101 155 -104 155 -3 0 -41 -69 -85 -152z
m177 -177 c41 -60 101 -151 132 -202 32 -52 72 -115 90 -140 18 -26 51 -101
74 -168 l42 -121 -25 -59 c-20 -48 -27 -88 -35 -208 -6 -81 -15 -168 -20 -193
-17 -73 -32 -233 -41 -430 -10 -229 -18 -312 -30 -324 -12 -13 -12 -96 0 -96
6 0 18 14 28 30 9 17 21 30 26 30 21 0 57 51 57 81 0 17 8 43 19 57 43 62 206
434 251 577 7 22 19 49 26 61 8 11 18 44 24 72 5 29 21 69 35 90 32 47 32 82
0 112 -26 24 -34 73 -15 85 6 4 25 30 44 58 65 101 171 193 281 243 38 18 64
39 86 69 45 63 125 118 294 202 83 41 164 85 180 97 42 32 70 39 98 24 70 -39
417 -291 422 -306 3 -11 -6 -43 -19 -73 -33 -76 -44 -121 -36 -145 5 -11 35
-35 69 -53 33 -17 65 -40 70 -50 21 -38 52 -141 71 -236 11 -55 31 -134 45
-175 29 -89 44 -180 34 -201 -4 -8 -13 -40 -20 -72 -11 -50 -10 -68 6 -140 11
-50 18 -114 16 -163 -2 -98 9 -134 42 -134 13 0 33 11 46 24 20 22 22 34 25
187 2 110 -1 174 -9 194 -24 59 -37 457 -21 650 7 92 12 109 61 210 64 135
123 209 229 287 88 66 292 169 370 189 69 17 330 5 438 -20 46 -11 106 -24
133 -30 114 -25 241 -63 274 -82 19 -11 55 -24 81 -29 26 -5 69 -22 94 -39 26
-16 84 -44 129 -62 127 -50 286 -134 350 -184 68 -54 138 -146 163 -212 9 -27
32 -84 50 -128 19 -45 34 -90 34 -102 0 -11 6 -23 14 -26 11 -4 15 12 18 76 5
96 9 103 161 347 88 141 107 165 130 168 15 2 114 -25 220 -59 157 -51 198
-69 225 -95 17 -18 32 -41 32 -53 0 -14 13 -27 40 -41 24 -12 45 -32 51 -48 6
-15 19 -45 29 -67 40 -89 91 -230 99 -272 10 -52 -33 -325 -74 -478 -28 -101
-30 -136 -13 -219 10 -53 9 -64 -17 -141 l-27 -83 22 -74 c13 -42 25 -120 30
-183 8 -115 38 -211 62 -203 7 3 31 31 53 64 33 47 57 110 117 294 119 364
207 664 219 743 6 40 15 77 19 82 4 6 10 30 14 55 7 49 204 638 231 692 26 50
84 106 124 119 20 6 45 19 56 29 11 10 38 20 60 23 22 4 71 22 108 42 37 19
73 35 80 35 7 0 29 9 50 20 31 17 42 18 60 9 43 -24 253 -244 275 -290 23 -46
44 -138 36 -151 -3 -5 -2 -8 3 -8 4 0 25 27 47 60 48 76 136 156 184 170 20 5
75 10 122 10 47 0 101 4 120 10 19 5 140 19 270 31 129 12 240 25 245 29 6 4
120 7 255 6 227 -2 248 -3 285 -22 22 -12 54 -24 70 -28 17 -4 63 -19 103 -33
58 -21 76 -32 84 -52 5 -14 16 -34 25 -43 16 -17 42 -61 67 -115 9 -17 20 -34
26 -38 5 -3 10 -23 10 -44 0 -21 7 -60 15 -87 8 -27 15 -66 15 -86 0 -21 4
-38 9 -38 13 0 77 100 96 150 21 58 31 71 80 102 22 14 59 40 82 59 86 68 102
80 137 94 47 20 141 29 199 21 25 -4 67 -21 93 -39 69 -45 143 -44 275 7 81
30 115 37 203 43 102 6 108 5 139 -18 28 -21 42 -24 122 -23 50 0 92 -3 95 -6
17 -20 152 -130 160 -130 5 0 39 -28 74 -62 36 -35 81 -74 100 -88 20 -14 59
-59 88 -100 29 -41 67 -91 85 -111 45 -50 83 -164 163 -497 24 -98 24 -160 -1
-357 -5 -44 -14 -114 -18 -155 -29 -247 -127 -443 -328 -653 -58 -61 -130
-147 -158 -192 -62 -94 -100 -132 -174 -171 -29 -16 -83 -56 -120 -89 -159
-147 -288 -233 -466 -313 -169 -76 -248 -99 -380 -111 -126 -12 -184 -8 -320
24 -38 9 -92 20 -120 24 -55 8 -74 16 -155 71 -101 69 -166 146 -235 278 -35
67 -67 139 -71 160 -4 20 -10 42 -14 47 -12 15 -37 122 -45 189 -4 32 -1 111
6 176 l12 116 -64 120 c-62 117 -64 120 -63 194 2 137 13 190 49 228 44 47
145 211 209 340 75 150 164 401 150 423 -4 7 -19 -1 -38 -19 -47 -45 -90 -63
-168 -69 -112 -10 -116 -16 -147 -300 -12 -104 -29 -207 -41 -242 -11 -33 -20
-82 -20 -108 0 -27 -9 -65 -21 -90 -31 -64 -48 -138 -55 -233 -3 -47 -17 -130
-32 -185 -23 -89 -26 -116 -24 -241 2 -119 -1 -147 -17 -185 -15 -35 -17 -56
-12 -102 4 -34 13 -62 22 -67 18 -12 143 -50 162 -50 8 0 20 -6 26 -14 14 -17
15 -16 -89 -67 -91 -44 -145 -99 -161 -166 -10 -36 -25 -59 -68 -100 -31 -30
-70 -67 -87 -83 -16 -17 -35 -30 -41 -30 -6 0 -23 -10 -38 -22 -31 -24 -70
-47 -122 -73 -18 -8 -33 -20 -33 -25 0 -5 -11 -12 -25 -16 -18 -4 -33 1 -56
20 -17 14 -36 26 -43 26 -7 0 -21 9 -31 20 -9 10 -40 27 -67 36 -66 22 -159
108 -195 182 -26 53 -28 65 -28 182 0 69 -4 131 -9 139 -5 8 -8 39 -7 70 1 31
-5 97 -14 146 -12 72 -12 113 -4 209 5 65 17 136 26 157 9 23 13 52 10 69 -4
16 0 62 9 102 8 40 17 154 21 253 4 127 10 186 19 200 8 11 14 29 14 42 0 12
5 25 10 28 13 8 12 68 -1 125 -6 25 -14 78 -19 118 -9 81 -21 100 -79 127 -37
16 -43 16 -118 0 -43 -10 -99 -20 -125 -22 -47 -5 -49 -4 -110 56 -93 90 -93
90 -128 -89 -8 -40 -75 -243 -129 -390 -12 -32 -20 -80 -21 -115 0 -33 -14
-117 -31 -185 -16 -69 -34 -172 -39 -230 -5 -58 -22 -161 -38 -230 -17 -69
-33 -158 -37 -198 -8 -79 -3 -92 54 -150 17 -17 31 -40 31 -51 0 -30 -63 -152
-122 -238 -58 -84 -175 -199 -243 -239 -27 -15 -96 -48 -154 -72 -58 -24 -131
-55 -161 -68 -30 -13 -62 -24 -71 -24 -18 0 -42 25 -90 94 -19 27 -47 67 -63
90 -37 53 -118 136 -132 136 -6 0 -18 -7 -25 -16 -7 -9 -36 -26 -64 -39 -55
-24 -115 -80 -115 -106 0 -9 35 -37 83 -67 79 -48 137 -105 137 -134 0 -8 7
-24 16 -36 13 -19 15 -38 9 -105 -9 -98 -37 -147 -113 -195 -119 -77 -215 -82
-342 -17 -25 12 -61 26 -80 30 -19 4 -59 20 -90 35 -30 16 -82 36 -115 45 -33
9 -96 33 -140 54 -217 104 -282 128 -444 161 -132 28 -142 31 -215 87 -78 59
-134 83 -271 119 -108 28 -293 112 -389 177 -21 15 -44 27 -51 27 -7 0 -39 20
-72 44 -32 24 -81 55 -110 69 -28 15 -72 44 -97 66 -25 22 -56 43 -68 46 -13
4 -32 16 -44 26 -32 29 -136 90 -158 92 -17 2 -25 -16 -61 -143 -52 -182 -81
-243 -142 -302 -71 -68 -123 -92 -213 -96 -72 -4 -79 -2 -138 32 -134 79 -242
184 -314 307 l-37 61 6 147 c5 148 31 289 69 369 10 21 13 44 9 60 -10 42 -58
113 -73 107 -7 -3 -10 0 -7 5 3 6 2 10 -3 10 -5 0 -10 -24 -10 -52 -1 -85 -26
-246 -56 -363 -9 -33 -16 -102 -16 -153 l0 -93 -40 -42 c-79 -83 -196 -214
-254 -285 -32 -40 -62 -72 -66 -72 -3 0 -20 -19 -37 -43 -17 -23 -62 -75 -101
-116 -59 -63 -72 -72 -88 -63 -11 6 -40 59 -68 124 -27 62 -70 156 -96 208
-79 161 -88 184 -100 264 -10 62 -11 100 -1 189 7 62 11 173 9 247 l-3 135
-35 3 c-20 2 -68 -9 -110 -23 -41 -15 -103 -35 -137 -46 -86 -27 -114 -62
-153 -191 -17 -57 -48 -158 -70 -226 -22 -68 -40 -142 -40 -167 0 -35 -6 -51
-31 -79 -22 -25 -35 -55 -44 -101 -25 -118 -64 -149 -241 -191 -59 -13 -134
-34 -167 -45 -95 -32 -147 -16 -247 76 -32 29 -90 77 -130 106 l-72 52 6 81 7
81 -20 -25 c-12 -14 -21 -33 -21 -42 0 -28 -38 -45 -160 -72 -129 -28 -280
-74 -365 -111 l-56 -25 -122 103 c-187 159 -234 214 -301 353 -32 65 -69 132
-83 148 -13 16 -44 63 -68 105 -24 42 -61 96 -81 120 l-37 43 -24 -46 c-27
-54 -104 -338 -111 -411 -4 -48 -3 -51 37 -85 l42 -36 -21 -27 c-12 -15 -26
-27 -32 -27 -5 0 -31 -17 -56 -37 -26 -21 -55 -45 -66 -53 -48 -37 -58 -52
-51 -73 4 -12 9 -35 12 -52 l5 -30 -139 -46 c-76 -26 -156 -51 -178 -57 -22
-5 -78 -24 -125 -41 -137 -49 -130 -52 -201 97 -82 170 -109 252 -116 344 -5
65 -2 90 20 160 36 116 48 190 41 256 -5 47 0 74 25 153 22 69 31 115 31 165
0 64 2 71 29 95 18 16 32 40 35 60 13 78 58 319 71 379 8 36 22 135 30 220 9
85 20 168 26 184 5 16 9 44 9 63 0 18 9 70 21 114 28 109 36 197 26 302 -10
104 7 185 53 259 53 87 291 368 316 374 17 4 38 -3 74 -26 102 -66 172 -60
250 22 46 48 49 50 91 45 24 -4 78 -10 120 -16 156 -19 295 -116 363 -253 42
-83 40 -110 -15 -213 -21 -38 -42 -95 -48 -127 -5 -31 -21 -83 -35 -117 -28
-64 -33 -132 -15 -178 12 -30 26 -61 82 -183 19 -41 59 -137 88 -212 30 -76
56 -137 59 -138 9 0 51 388 50 460 0 36 -7 97 -16 135 -9 39 -18 90 -21 114
-6 43 -5 45 43 86 46 40 48 44 49 96 2 61 76 285 128 384 18 32 62 91 98 130
78 85 126 154 203 295 68 124 109 190 117 190 3 0 39 -49 81 -109z m7579
-1815 c15 -8 23 -19 21 -32 -4 -25 -32 -383 -41 -511 -5 -87 -10 -105 -29
-126 l-23 -24 10 -204 c6 -112 16 -238 22 -279 7 -41 13 -149 13 -240 1 -134
5 -171 18 -196 23 -41 67 -78 135 -111 64 -32 87 -58 111 -126 21 -62 65 -106
161 -162 82 -49 240 -157 240 -165 0 -3 -27 -22 -60 -44 -74 -47 -98 -83 -140
-206 -38 -114 -61 -140 -124 -140 -62 0 -163 -34 -220 -75 -28 -19 -58 -35
-68 -35 -10 0 -39 14 -64 31 -135 93 -329 99 -465 13 -20 -13 -45 -24 -53 -24
-9 0 -52 18 -96 40 -102 52 -233 96 -329 111 -53 8 -82 19 -100 35 -32 29 -82
50 -143 59 -43 7 -48 10 -44 29 15 61 18 139 7 190 -14 66 -13 71 2 71 6 0 21
-18 32 -40 30 -58 59 -64 137 -32 35 15 135 53 222 87 86 33 176 69 199 81 51
26 131 100 160 148 12 20 50 63 83 96 44 43 74 86 107 152 75 148 76 216 2
290 -42 41 -56 73 -34 73 6 0 10 11 10 24 0 14 7 53 15 88 8 35 14 93 14 129
-1 52 5 77 25 117 26 52 34 116 16 127 -14 9 -12 39 5 72 15 28 75 329 75 376
0 14 5 29 10 32 6 3 10 15 10 27 0 11 16 50 35 87 22 42 37 86 40 122 3 30 15
71 27 89 l20 34 12 -23 c7 -12 23 -28 37 -35z m-4038 -1608 c34 -23 85 -62
114 -87 46 -41 96 -71 173 -104 14 -6 39 -21 55 -32 101 -72 136 -95 147 -95
7 0 24 -9 38 -20 14 -11 31 -20 38 -20 7 0 15 -7 18 -15 4 -8 14 -15 24 -15
35 0 211 -50 299 -86 50 -20 111 -52 136 -71 76 -58 191 -107 262 -111 51 -4
63 -8 69 -24 4 -14 -4 -28 -31 -51 -20 -18 -38 -43 -40 -57 -2 -14 -10 -42
-17 -62 -12 -36 -15 -38 -55 -38 -32 0 -43 4 -48 19 -6 20 -28 24 -174 37 -54
5 -72 2 -121 -20 -71 -32 -93 -33 -117 -2 -11 13 -42 32 -70 42 -44 16 -55 16
-80 5 -15 -8 -46 -13 -68 -12 -22 1 -61 -4 -85 -13 -25 -8 -63 -19 -85 -25
-49 -13 -148 -76 -194 -125 -19 -20 -41 -36 -49 -36 -8 0 -46 31 -86 69 -99
95 -120 105 -223 98 -89 -5 -113 4 -113 43 0 25 -129 176 -157 184 -13 4 -44
20 -70 36 -101 64 -139 72 -323 65 -336 -12 -670 -14 -676 -4 -3 6 27 45 68
87 40 42 127 141 192 220 93 112 123 142 140 140 11 -2 22 -12 25 -23 6 -34
168 -202 242 -251 116 -76 156 -89 289 -89 109 0 119 2 183 33 106 49 173 124
219 242 20 52 44 121 54 153 10 31 22 57 26 57 5 0 37 -19 71 -42z m2655 -340
c31 -31 2 -51 -34 -23 -16 13 -17 16 -4 25 19 13 24 12 38 -2z m6141 -9 c38
-13 61 -54 61 -108 0 -33 -10 -51 -66 -123 -77 -96 -94 -130 -94 -190 0 -31
-16 -79 -56 -168 -73 -163 -193 -465 -306 -765 -72 -195 -102 -261 -157 -350
-79 -127 -113 -192 -136 -256 -21 -62 -137 -205 -205 -252 -86 -60 -169 -80
-303 -75 -91 4 -120 9 -157 28 -111 57 -133 89 -132 194 1 39 11 105 22 146
11 41 25 109 31 150 6 41 15 90 21 108 7 24 6 37 -3 48 -15 18 -23 10 -39 -41
-17 -54 -76 -151 -125 -204 -65 -71 -126 -128 -149 -139 -11 -6 -86 -42 -166
-81 -80 -38 -170 -89 -200 -112 -86 -66 -164 -65 -229 4 -21 23 -23 32 -19
109 2 52 10 95 21 117 9 19 17 37 17 42 0 4 -33 -1 -72 -12 -69 -17 -382 -33
-576 -30 -92 2 -165 33 -230 98 -29 29 -60 53 -68 53 -9 0 -109 -45 -222 -99
-114 -55 -238 -109 -277 -120 -128 -37 -368 -71 -507 -71 -63 0 -56 5 -137
-85 -69 -76 -134 -79 -202 -9 -31 32 -34 42 -39 108 -3 41 -2 90 1 110 6 40
-7 58 -25 35 -6 -8 -36 -25 -66 -37 -30 -13 -86 -42 -125 -65 l-69 -42 -111 0
c-98 0 -116 3 -167 27 -139 65 -228 211 -228 374 0 28 -5 47 -13 50 -7 2 -66
-18 -131 -46 -213 -91 -327 -112 -469 -86 -46 8 -48 7 -82 -28 -19 -20 -51
-67 -72 -104 -20 -37 -50 -85 -66 -107 -15 -22 -41 -60 -57 -85 -16 -25 -51
-72 -78 -105 -44 -54 -54 -61 -95 -67 -26 -3 -72 -18 -103 -32 -77 -36 -118
-34 -155 5 -38 41 -38 81 2 171 17 39 36 96 42 127 7 31 21 70 33 86 12 17 31
57 43 90 13 33 27 65 32 71 22 27 67 194 52 194 -10 0 -50 -25 -77 -47 -52
-43 -109 -66 -186 -74 -41 -4 -96 -17 -121 -28 -81 -36 -177 -54 -259 -48 -42
4 -83 9 -92 12 -21 8 -119 -95 -135 -142 -8 -22 -47 -67 -107 -125 -87 -82
-196 -206 -196 -223 0 -4 -15 -25 -34 -48 -19 -23 -41 -60 -50 -82 -16 -37
-62 -84 -110 -112 -52 -31 -126 1 -146 63 -7 21 -13 67 -14 103 -1 60 4 77 51
177 45 96 53 122 59 195 4 46 11 92 16 102 5 9 5 17 0 17 -14 0 -38 -31 -65
-85 -14 -27 -45 -68 -69 -90 -88 -83 -168 -146 -197 -156 -38 -13 -100 3 -128
33 -36 39 -37 68 -4 195 34 133 72 233 139 370 29 60 42 98 38 110 -7 17 -8
16 -24 -5 -9 -12 -37 -61 -61 -110 -24 -48 -55 -99 -68 -113 -13 -14 -27 -43
-30 -65 -4 -22 -16 -46 -28 -55 -11 -10 -34 -41 -50 -71 -15 -29 -57 -85 -93
-125 -62 -70 -67 -73 -150 -99 -47 -14 -129 -48 -182 -74 -123 -62 -154 -68
-214 -41 -44 19 -46 22 -46 60 0 51 107 299 133 307 9 3 24 20 32 37 9 18 23
46 32 62 29 53 33 64 33 89 0 14 -7 32 -15 40 -21 21 -46 5 -82 -49 -14 -22
-34 -52 -45 -67 -10 -15 -18 -30 -18 -33 0 -13 -118 -186 -172 -252 -48 -59
-67 -75 -101 -84 -23 -6 -60 -22 -83 -35 -53 -31 -86 -30 -184 6 -108 40 -156
39 -245 -4 -39 -18 -93 -47 -120 -63 -28 -17 -69 -33 -90 -37 -22 -4 -83 -25
-135 -46 -125 -51 -226 -64 -335 -45 -102 18 -229 18 -330 0 -50 -9 -148 -15
-262 -15 -101 0 -256 -7 -345 -16 -187 -18 -216 -15 -271 23 -40 28 -41 28
-211 29 -190 0 -235 11 -280 65 -21 25 -23 34 -15 61 11 41 39 64 92 79 58 15
85 30 153 86 l59 48 115 7 c63 4 198 11 300 17 102 5 217 16 255 25 39 8 108
20 155 26 47 7 121 20 165 30 44 10 109 22 145 25 36 4 79 15 95 24 17 10 81
40 143 66 165 71 170 94 29 149 -209 81 -348 186 -453 343 -63 93 -63 95 -80
285 l-7 77 43 73 c126 214 306 356 526 417 40 10 82 25 95 32 68 36 197 50
574 59 187 5 362 12 388 15 91 13 278 -84 354 -183 30 -40 33 -49 33 -116 0
-40 3 -75 6 -79 3 -3 18 -2 32 3 211 67 214 66 336 -60 l86 -89 0 -90 c0 -67
-5 -99 -20 -132 -20 -45 -26 -114 -11 -137 5 -9 12 2 21 35 7 26 38 107 68
178 114 272 117 275 329 354 107 40 144 40 227 -4 83 -43 135 -45 221 -10 69
28 124 31 185 10 45 -16 129 -78 161 -119 26 -33 44 -33 57 2 24 63 62 183 62
196 0 7 9 21 20 31 11 10 20 23 20 30 0 16 40 52 73 64 15 6 78 16 140 22 152
14 176 7 269 -79 40 -37 93 -75 118 -85 25 -10 62 -28 84 -39 25 -13 61 -21
105 -22 97 -4 181 -45 251 -125 30 -33 57 -61 60 -61 3 0 14 22 23 48 36 99
108 154 219 167 51 6 60 5 90 -19 42 -31 86 -47 220 -80 185 -44 300 -97 393
-178 31 -27 50 -38 53 -30 13 39 74 109 113 130 39 21 53 23 125 19 49 -3 97
-12 120 -23 44 -21 148 -119 140 -133 -3 -5 -1 -23 5 -40 17 -49 48 -38 81 28
37 72 70 105 142 141 82 41 129 40 195 -5 34 -22 53 -30 56 -22 2 7 22 75 45
152 49 160 69 206 114 253 44 48 101 74 171 79 56 5 65 3 135 -38 127 -72 183
-90 310 -101 63 -6 132 -10 153 -9 23 1 48 -6 65 -18 15 -10 45 -22 66 -26 50
-8 207 -134 264 -211 l39 -53 29 30 c68 71 183 100 290 73 37 -9 77 -13 92 -9
108 27 500 38 542 15 11 -6 43 -31 71 -56 28 -25 58 -44 67 -42 11 2 23 30 38
91 12 48 29 102 38 121 9 19 16 39 16 45 0 31 64 132 114 179 66 63 149 102
228 109 51 5 62 3 97 -22 51 -34 221 -210 246 -252 11 -18 25 -33 31 -33 36 0
21 -153 -23 -230 -47 -82 -63 -119 -63 -144 0 -21 58 -148 88 -194 7 -10 17 1
40 40 16 29 59 90 95 135 35 45 75 99 88 120 12 21 29 42 36 46 7 4 20 22 29
39 32 61 271 365 354 449 139 141 286 248 341 249 9 0 30 -5 48 -11z"/>
<path d="M4435 7558 c-72 -134 -87 -154 -131 -173 -20 -8 -39 -26 -46 -42 -7
-15 -20 -40 -30 -55 -29 -42 -94 -178 -111 -233 -9 -27 -25 -97 -37 -154 -17
-90 -25 -109 -55 -142 -29 -32 -35 -47 -35 -83 0 -25 5 -57 11 -73 19 -48 22
-265 6 -361 -9 -48 -18 -165 -22 -260 -5 -145 -10 -183 -30 -243 -14 -39 -28
-93 -31 -120 -6 -47 -16 -57 -41 -41 -10 6 -105 261 -134 360 -6 20 -14 30
-21 26 -6 -4 -8 -3 -5 3 8 13 -21 100 -67 199 -20 42 -36 80 -36 84 0 19 -24
59 -38 65 -13 5 -13 3 1 -13 20 -22 22 -33 5 -28 -7 1 -10 1 -5 -1 15 -9 6
-29 -13 -29 -13 0 -20 7 -20 20 0 11 -3 16 -6 13 -4 -4 -6 -307 -5 -675 2
-568 0 -675 -13 -711 -14 -41 -13 -44 5 -48 10 -3 19 -9 19 -14 0 -13 -24 -11
-40 4 -10 8 -9 5 2 -13 12 -20 23 -25 52 -24 37 2 41 -2 27 -24 -6 -10 -10
-10 -21 3 -33 40 -42 -11 -10 -63 12 -20 25 -30 32 -26 6 4 8 3 5 -3 -7 -11
33 -51 103 -103 25 -19 63 -54 86 -79 l41 -45 44 13 c24 7 62 21 84 31 22 10
68 23 103 30 34 6 80 17 102 25 21 7 59 17 84 20 43 7 49 11 79 64 110 187
200 490 272 915 14 82 27 152 30 156 10 16 36 267 55 520 11 151 22 286 25
300 3 14 12 111 20 215 9 105 26 233 37 285 12 52 21 115 22 140 0 60 -52 189
-109 271 -24 35 -67 101 -95 147 -32 51 -58 82 -68 82 -11 0 -37 -38 -77 -112z
m-828 -1310 c-3 -8 -6 -5 -6 6 -1 11 2 17 5 13 3 -3 4 -12 1 -19z m7 -33 c-4
-8 -8 -15 -10 -15 -2 0 -4 7 -4 15 0 8 4 15 10 15 5 0 7 -7 4 -15z m-57 -117
c-2 -13 -4 -3 -4 22 0 25 2 35 4 23 2 -13 2 -33 0 -45z m50 -480 c-2 -13 -4
-3 -4 22 0 25 2 35 4 23 2 -13 2 -33 0 -45z m-10 -730 c-3 -8 -6 -5 -6 6 -1
11 2 17 5 13 3 -3 4 -12 1 -19z m-24 -15 c-7 -2 -19 -2 -25 0 -7 3 -2 5 12 5
14 0 19 -2 13 -5z"/>
<path d="M6109 7600 c-15 -11 -100 -60 -190 -108 -117 -63 -164 -93 -163 -105
1 -9 -2 -14 -7 -12 -4 3 -20 -17 -34 -45 -24 -48 -25 -50 -7 -68 40 -40 41
-58 38 -597 -2 -286 -6 -534 -11 -552 -4 -18 -4 -40 0 -50 4 -10 7 -30 6 -45
-2 -19 2 -28 13 -28 9 0 28 36 55 104 37 95 102 216 139 259 8 9 26 17 39 17
21 0 23 -4 23 -53 0 -29 5 -91 11 -137 10 -82 6 -163 -10 -188 -9 -15 -26 -16
-91 -7 -28 4 -57 2 -75 -6 -42 -17 -67 -21 -60 -9 3 5 2 10 -3 10 -5 0 -9 -11
-9 -25 0 -13 3 -22 8 -20 4 3 11 1 14 -5 4 -6 1 -9 -6 -8 -7 2 -16 -12 -20
-32 -11 -48 -15 -284 -7 -407 l6 -101 -35 14 c-19 8 -33 11 -30 7 11 -18 -29
-53 -66 -58 -21 -3 -45 -12 -53 -20 -20 -20 -22 -20 102 20 59 19 122 35 138
35 17 0 48 9 69 20 20 11 54 20 76 20 46 0 51 -10 51 -115 0 -39 6 -95 14
-125 8 -31 11 -63 6 -74 -4 -12 -13 -106 -20 -211 l-12 -190 26 -57 c14 -31
26 -60 26 -64 0 -4 28 -65 63 -135 40 -83 68 -129 78 -129 24 0 97 58 129 104
16 22 50 64 77 92 26 28 65 71 85 95 21 24 46 55 58 68 11 13 20 28 20 33 0 5
11 19 23 31 44 41 51 66 49 167 -1 73 3 106 18 148 32 84 50 214 56 392 7 187
13 218 58 269 83 93 86 126 21 213 l-45 60 0 102 c0 66 -6 122 -16 157 -15 48
-15 70 -5 186 14 153 5 225 -38 312 -20 39 -32 85 -40 150 -16 126 -28 144
-128 192 -45 21 -86 39 -92 39 -26 0 -22 50 9 120 41 93 47 133 26 165 -9 14
-60 55 -114 91 -53 36 -112 76 -131 90 -41 29 -77 30 -112 4z m-319 -263 c0
-8 -9 -24 -20 -37 -16 -18 -20 -20 -20 -7 0 10 4 17 9 17 5 0 13 9 16 20 7 23
15 26 15 7z m-10 -582 c0 -289 -3 -525 -7 -525 -5 0 -7 236 -5 525 1 289 5
525 7 525 3 0 5 -236 5 -525z m40 -593 c0 -13 -4 -20 -10 -17 -5 3 -10 15 -10
26 0 12 -7 19 -20 19 -11 0 -20 7 -20 15 0 12 5 11 30 -3 20 -11 30 -25 30
-40z m20 48 c0 -5 -5 -10 -11 -10 -5 0 -7 5 -4 10 3 6 8 10 11 10 2 0 4 -4 4
-10z m-40 -78 c0 -15 -2 -15 -10 -2 -8 12 -10 12 -10 -5 0 -11 -5 -27 -10 -35
-8 -11 -9 -6 -8 20 3 35 15 53 30 44 4 -3 8 -13 8 -22z m55 -732 c-3 -5 -16
-10 -28 -9 -20 1 -20 2 3 9 14 4 26 8 28 9 2 1 0 -3 -3 -9z m-115 -19 c0 -5
-7 -12 -16 -15 -24 -9 -28 -7 -14 9 14 17 30 20 30 6z"/>
<path d="M11440 7454 c-29 -13 -57 -24 -62 -24 -10 0 -45 -16 -187 -83 -58
-28 -95 -82 -127 -181 -14 -45 -32 -91 -40 -104 -8 -12 -23 -62 -34 -111 -10
-48 -28 -106 -40 -128 -11 -23 -29 -81 -39 -130 -26 -129 -104 -411 -170 -623
-33 -102 -67 -221 -76 -265 -10 -44 -25 -96 -35 -115 -19 -38 -48 -123 -53
-155 -2 -11 -11 -35 -20 -53 -10 -18 -15 -38 -11 -44 5 -7 3 -8 -6 -3 -10 6
-12 4 -7 -8 3 -9 3 -16 -2 -14 -4 1 -21 -14 -37 -33 -15 -19 -19 -27 -8 -17
11 9 26 17 32 17 6 0 17 9 25 21 10 13 23 19 39 17 l23 -3 1 -393 c1 -315 4
-396 15 -410 12 -15 12 -16 -1 -5 -10 7 -21 8 -30 3 -8 -5 -25 -3 -44 6 -28
14 -29 14 -12 -1 11 -8 23 -15 26 -15 4 0 27 -29 53 -65 26 -36 50 -64 54 -64
19 3 33 -2 33 -12 0 -8 -5 -8 -15 1 -23 19 -18 -4 5 -25 11 -10 20 -23 20 -28
0 -11 86 -107 108 -120 8 -5 29 1 56 17 24 14 75 34 115 45 101 28 141 54 195
127 26 36 72 83 102 106 109 82 128 160 64 253 l-33 47 17 172 c9 94 25 207
36 251 11 44 24 118 29 165 5 47 21 128 35 180 14 52 34 149 46 215 24 140 30
160 81 280 20 50 47 137 59 195 11 58 28 121 37 140 12 26 17 70 19 170 1 95
6 148 18 179 9 24 16 60 16 79 0 20 7 56 17 80 14 37 15 53 4 120 -6 42 -13
98 -15 123 -3 52 -11 69 -32 69 -8 0 -14 7 -14 15 0 20 -130 150 -157 157 -13
3 -43 -4 -73 -18z m-765 -2954 c3 -5 1 -10 -4 -10 -6 0 -11 5 -11 10 0 6 2 10
4 10 3 0 8 -4 11 -10z"/>
<path d="M8468 7463 c7 -3 16 -2 19 1 4 3 -2 6 -13 5 -11 0 -14 -3 -6 -6z"/>
<path d="M8565 7420 c10 -11 20 -20 23 -20 3 0 -3 9 -13 20 -10 11 -20 20 -23
20 -3 0 3 -9 13 -20z"/>
<path d="M8620 7370 c28 -22 45 -26 34 -9 -4 7 -1 10 7 7 9 -3 13 -16 11 -34
-2 -16 -3 -40 -2 -54 8 -154 9 -1067 1 -1097 -11 -39 -6 -57 9 -33 7 10 10 11
10 3 0 -7 5 -13 10 -13 6 0 10 7 10 16 0 8 3 13 8 11 4 -3 6 140 6 316 l-1
322 8 -320 c5 -176 9 -329 9 -340 1 -20 1 -20 15 -1 8 11 18 17 21 13 3 -3 -7
-18 -22 -32 -21 -20 -36 -25 -55 -21 -21 4 -28 1 -32 -14 -3 -10 -20 -28 -38
-39 -63 -38 -70 -44 -56 -53 8 -5 3 -8 -12 -8 -13 0 -22 -3 -18 -6 8 -9 53 3
69 19 30 28 75 54 103 61 46 11 116 56 109 68 -4 6 -3 8 3 5 12 -8 156 61 149
71 -3 5 1 9 8 9 20 0 85 55 92 78 4 11 35 50 69 86 114 122 150 246 107 374
-11 33 -28 87 -37 120 -15 54 -78 204 -97 230 -59 85 -269 223 -373 245 -33 8
-64 16 -70 20 -5 4 -26 10 -45 14 l-35 6 25 -20z m90 -50 c0 -5 -4 -10 -10
-10 -5 0 -10 5 -10 10 0 6 5 10 10 10 6 0 10 -4 10 -10z m109 -4 c8 -10 8 -16
-3 -25 -11 -9 -16 -9 -22 0 -4 7 -3 9 3 6 5 -3 10 0 10 8 0 11 -4 12 -14 4 -7
-7 -25 -8 -40 -4 l-28 6 23 -21 c22 -21 29 -40 15 -40 -5 0 -8 -82 -7 -182 0
-178 0 -179 -3 -25 -5 211 -23 208 -25 -5 l-1 -163 -7 150 c-4 83 -10 161 -13
175 -4 14 -4 19 -1 12 10 -22 36 23 29 51 -5 18 -12 23 -31 21 -13 -1 -24 2
-24 7 0 5 9 9 19 9 11 0 23 5 26 10 3 6 17 7 31 4 14 -4 24 -2 24 5 0 15 25
14 39 -3z m-29 -36 c0 -5 -4 -10 -10 -10 -5 0 -10 5 -10 10 0 6 5 10 10 10 6
0 10 -4 10 -10z m-33 -922 c-2 -24 -4 -5 -4 42 0 47 2 66 4 43 2 -24 2 -62 0
-85z m23 -105 c0 -43 -4 -63 -9 -53 -8 14 -3 120 5 120 2 0 4 -30 4 -67z
m-124 -208 c-11 -8 -24 -15 -30 -15 -5 0 -1 7 10 15 10 8 24 14 29 14 6 0 1
-6 -9 -14z m-51 -34 c-3 -6 -11 -11 -17 -11 -6 0 -6 6 2 15 14 17 26 13 15 -4z"/>
<path d="M12846 7349 c-76 -10 -142 -16 -146 -14 -5 3 -21 2 -38 -1 -20 -4
-29 -11 -27 -23 1 -12 12 -16 43 -14 l42 2 2 -1465 c2 -805 0 -1464 -4 -1464
-5 0 -8 -11 -8 -24 0 -15 -7 -26 -17 -29 -14 -4 -14 -5 3 -6 24 -1 77 36 69
49 -3 5 0 12 6 16 8 5 9 3 4 -6 -6 -10 -4 -12 9 -7 10 4 21 7 26 7 4 0 26 17
48 38 22 20 51 45 65 54 17 12 33 42 51 95 23 68 26 95 26 208 0 72 7 175 15
230 8 55 15 156 15 225 0 110 3 132 25 185 19 46 25 78 25 140 0 63 7 99 30
165 39 109 57 186 66 280 4 41 14 86 23 99 11 17 18 59 22 125 4 56 16 153 28
216 11 63 21 134 21 157 0 51 18 65 66 50 24 -7 45 -7 73 1 21 7 55 12 75 12
45 0 64 10 136 68 73 59 85 82 71 138 -6 23 -11 65 -11 93 0 56 -52 199 -93
254 -13 17 -27 40 -30 49 -8 23 -50 43 -154 73 -48 14 -100 30 -114 36 -21 8
-34 7 -60 -7 -34 -17 -42 -17 -224 11 -11 1 -83 -6 -159 -16z"/>
<path d="M3252 7317 c-21 -27 -23 -37 -8 -37 9 0 15 6 14 13 -2 8 9 11 32 10
29 -2 32 0 15 8 -16 7 -12 8 14 4 19 -3 42 -11 50 -18 9 -8 35 -14 58 -15 23
0 53 -6 65 -13 16 -8 20 -8 13 0 -14 14 -148 52 -202 56 -24 2 -45 -1 -51 -8z"/>
<path d="M12488 7303 c7 -3 16 -2 19 1 4 3 -2 6 -13 5 -11 0 -14 -3 -6 -6z"/>
<path d="M3530 7250 c8 -5 11 -10 6 -10 -5 0 -3 -6 3 -14 8 -10 9 -16 1 -21
-5 -3 -10 -12 -10 -18 0 -8 3 -7 9 2 5 7 11 9 13 5 3 -5 3 -3 2 4 -5 20 12 14
30 -10 l17 -23 -12 25 c-15 32 -49 70 -63 70 -6 0 -4 -5 4 -10z"/>
<path d="M5580 7240 c-8 -5 -10 -10 -5 -10 6 0 17 5 25 10 8 5 11 10 5 10 -5
0 -17 -5 -25 -10z"/>
<path d="M5536 7217 c-16 -12 -16 -13 2 -13 10 0 19 6 19 13 0 7 -1 13 -2 13
-1 0 -9 -6 -19 -13z"/>
<path d="M14915 7204 c-22 -9 -84 -26 -137 -39 -86 -22 -218 -76 -218 -90 0
-3 17 3 38 13 49 24 76 19 68 -14 -6 -21 -3 -24 21 -25 24 -2 25 -2 6 -6 -23
-4 -23 -6 -25 -206 -3 -256 0 -350 14 -358 7 -4 6 -9 -2 -14 -6 -4 -9 -13 -6
-21 3 -9 0 -11 -11 -7 -11 4 -14 2 -9 -5 5 -8 -1 -12 -16 -12 -13 0 -36 -9
-53 -20 -40 -27 -31 -25 65 10 45 17 89 30 98 30 9 0 29 14 44 32 25 31 27 32
45 16 10 -9 44 -26 76 -38 136 -51 216 -160 225 -308 3 -47 12 -92 23 -114 28
-56 27 -239 -1 -275 -11 -14 -20 -33 -20 -43 0 -9 -9 -25 -20 -35 -11 -10 -56
-93 -101 -184 l-80 -167 -94 -84 c-86 -79 -147 -126 -199 -157 -12 -7 -20 -18
-18 -24 2 -6 -4 -9 -12 -6 -8 3 -26 -5 -41 -19 -18 -17 -21 -24 -11 -24 8 0
20 10 27 21 8 16 13 18 19 9 5 -8 10 -9 14 -2 3 6 15 11 26 11 55 2 64 3 53 8
-7 3 -13 9 -13 14 0 6 5 7 12 3 8 -5 9 -2 4 11 -5 14 -4 16 7 7 8 -7 17 -9 20
-5 4 3 7 1 7 -5 0 -7 -7 -12 -15 -12 -8 0 -14 -6 -13 -12 2 -7 -6 -13 -17 -13
-19 0 -20 -7 -22 -245 -1 -135 -3 -247 -4 -250 -7 -28 -6 -80 2 -80 6 0 7 -5
3 -11 -4 -7 1 -7 16 1 12 6 44 18 71 26 27 8 49 19 49 23 0 5 10 11 23 15 25
6 128 83 300 223 59 48 131 102 160 119 41 24 53 37 57 62 4 23 44 72 157 191
152 160 268 316 297 397 7 21 17 59 21 84 4 25 12 54 18 65 10 19 30 153 47
315 5 47 12 101 15 120 4 20 -1 67 -10 110 -9 41 -23 109 -30 150 -7 41 -22
95 -33 120 -11 25 -23 66 -26 91 -10 70 -187 339 -223 339 -6 0 -31 22 -55 49
-24 26 -62 58 -83 69 -22 11 -46 30 -53 41 -7 12 -19 21 -27 21 -8 0 -19 9
-25 20 -6 11 -17 20 -24 20 -8 0 -16 9 -19 20 -6 22 -35 24 -98 7 -33 -8 -41
-6 -70 16 -31 23 -115 48 -157 47 -9 -1 -35 -8 -57 -16z m-175 -129 c-7 -8
-22 -15 -34 -15 -21 1 -21 1 -2 15 27 21 53 20 36 0z m6 -550 c-2 -37 -26 -41
-26 -5 0 19 5 30 14 30 9 0 13 -10 12 -25z m-66 -1455 c0 -5 -12 -10 -27 -9
l-28 1 25 8 c14 4 26 8 28 9 1 1 2 -3 2 -9z m57 -172 c-2 -13 -4 -3 -4 22 0
25 2 35 4 23 2 -13 2 -33 0 -45z m0 -240 c-2 -13 -4 -3 -4 22 0 25 2 35 4 23
2 -13 2 -33 0 -45z m-11 -137 c-10 -15 -46 -14 -46 2 0 7 5 18 12 25 10 10 15
9 26 -2 8 -8 11 -19 8 -25z"/>
<path d="M3601 7155 c0 -5 4 -19 8 -30 5 -12 4 -25 -2 -33 -7 -9 -7 -16 1 -24
8 -8 7 -19 -4 -40 -9 -17 -14 -31 -12 -33 2 -2 14 16 27 40 l23 44 -20 43
c-12 24 -21 39 -21 33z"/>
<path d="M3550 7141 c0 -5 7 -12 16 -15 14 -5 15 -4 4 9 -14 17 -20 19 -20 6z"/>
<path d="M3570 6995 c0 -5 5 -17 10 -25 5 -8 10 -10 10 -5 0 6 -5 17 -10 25
-5 8 -10 11 -10 5z"/>
<path d="M3561 6919 c-6 -18 -11 -37 -10 -43 0 -6 7 7 15 28 8 22 12 41 10 43
-2 2 -9 -10 -15 -28z"/>
<path d="M3536 6835 c-3 -9 -6 -22 -5 -28 0 -7 5 -1 10 12 5 13 8 26 5 28 -2
2 -6 -3 -10 -12z"/>
<path d="M7935 6828 c-2 -7 -11 -51 -20 -98 -9 -47 -18 -98 -22 -114 -5 -26
-3 -28 13 -21 11 4 28 10 39 13 11 3 31 13 45 22 14 9 49 30 78 45 93 50 80
108 -32 144 -75 24 -95 26 -101 9z"/>
<path d="M3521 6774 c0 -11 3 -14 6 -6 3 7 2 16 -1 19 -3 4 -6 -2 -5 -13z"/>
<path d="M3486 6673 c-9 -26 -12 -43 -7 -38 11 13 32 77 27 82 -2 2 -11 -17
-20 -44z"/>
<path d="M3451 6644 c0 -11 3 -14 6 -6 3 7 2 16 -1 19 -3 4 -6 -2 -5 -13z"/>
<path d="M3456 6573 c-6 -14 -5 -15 5 -6 7 7 10 15 7 18 -3 3 -9 -2 -12 -12z"/>
<path d="M3481 6574 c0 -11 3 -14 6 -6 3 7 2 16 -1 19 -3 4 -6 -2 -5 -13z"/>
<path d="M3494 6525 c4 -16 12 -34 17 -40 5 -5 4 6 -2 25 -15 45 -24 54 -15
15z"/>
<path d="M3461 6524 c0 -11 3 -14 6 -6 3 7 2 16 -1 19 -3 4 -6 -2 -5 -13z"/>
<path d="M3536 6411 c-3 -5 1 -14 8 -20 12 -10 13 -8 9 8 -6 23 -9 25 -17 12z"/>
<path d="M9292 6382 c-5 -15 -22 -41 -38 -58 -16 -16 -46 -51 -67 -77 -22 -26
-87 -81 -145 -122 -59 -41 -129 -90 -156 -110 -27 -19 -56 -35 -66 -35 -29 0
-100 -35 -189 -94 -106 -70 -259 -149 -331 -170 -112 -33 -118 -25 155 -205
135 -88 245 -165 245 -170 0 -5 10 -13 23 -17 12 -4 39 -22 59 -40 36 -32 88
-64 106 -64 4 0 33 -24 63 -53 30 -29 106 -84 169 -122 130 -78 239 -150 290
-194 28 -24 37 -27 43 -15 4 7 3 23 -3 34 -6 12 -10 28 -9 38 2 9 -7 58 -19
107 -22 94 -66 317 -77 395 -3 25 -13 76 -22 113 -11 50 -14 87 -8 135 11 95
5 735 -6 747 -4 3 -11 -7 -17 -23z m-98 -769 c4 -16 11 -57 16 -93 18 -130 33
-186 56 -217 28 -37 29 -46 9 -63 -16 -13 -12 -75 6 -94 12 -13 12 -53 0 -60
-8 -6 -57 13 -91 34 -8 5 -27 11 -41 14 -14 3 -48 28 -76 54 -29 27 -69 60
-90 72 -46 28 -134 95 -176 134 l-31 28 25 19 c13 10 44 28 69 40 25 11 61 36
81 55 31 31 185 101 226 103 6 1 14 -11 17 -26z"/>
<path d="M3526 6377 c3 -10 9 -15 12 -12 3 3 0 11 -7 18 -10 9 -11 8 -5 -6z"/>
<path d="M14785 6340 c-22 -11 -47 -20 -56 -20 -28 0 -132 -59 -172 -98 -50
-48 -63 -74 -77 -152 -6 -36 -29 -141 -51 -234 -38 -157 -40 -176 -32 -242 7
-57 5 -95 -9 -176 -22 -120 -18 -209 11 -266 33 -65 43 -65 166 9 173 104 281
218 342 362 18 43 42 92 53 107 11 16 39 68 62 117 36 74 43 98 43 148 -1 38
-7 72 -19 94 -11 20 -20 63 -22 101 -3 36 -14 97 -27 135 -21 65 -25 71 -77
102 -64 38 -82 40 -135 13z m159 -446 c13 -33 5 -64 -30 -114 -20 -29 -41 -68
-48 -89 -19 -54 -31 -39 -30 37 1 75 20 123 62 159 32 27 38 28 46 7z"/>
<path d="M14479 6313 c-13 -16 -12 -17 4 -4 9 7 17 15 17 17 0 8 -8 3 -21 -13z"/>
<path d="M8486 5347 c3 -10 9 -15 12 -12 3 3 0 11 -7 18 -10 9 -11 8 -5 -6z"/>
<path d="M10449 5323 c-13 -16 -12 -17 4 -4 9 7 17 15 17 17 0 8 -8 3 -21 -13z"/>
<path d="M5528 5293 c7 -3 16 -2 19 1 4 3 -2 6 -13 5 -11 0 -14 -3 -6 -6z"/>
<path d="M3261 5264 c0 -11 3 -14 6 -6 3 7 2 16 -1 19 -3 4 -6 -2 -5 -13z"/>
<path d="M8612 5258 c15 -13 28 -29 30 -37 2 -8 10 -23 18 -33 23 -28 32 -718
10 -718 -13 0 -13 -1 0 -10 23 -15 -4 -12 -36 5 -20 9 -39 12 -59 7 l-29 -8
36 -17 c20 -9 40 -17 45 -17 5 0 92 -27 193 -61 149 -49 192 -67 220 -93 55
-51 155 -94 256 -110 49 -7 103 -20 119 -29 17 -8 55 -23 85 -32 30 -10 98
-39 150 -65 52 -26 140 -62 195 -80 55 -18 156 -57 225 -88 155 -69 205 -74
272 -25 57 41 78 71 85 120 10 73 -10 108 -99 174 -127 94 -293 187 -372 209
-32 9 -73 33 -117 69 -124 102 -178 138 -222 151 -30 8 -48 20 -56 36 -6 13
-17 24 -24 24 -8 0 -22 9 -32 20 -10 11 -27 22 -39 26 -11 4 -40 24 -63 45
-22 20 -61 48 -85 60 -23 12 -60 39 -81 60 -21 21 -80 58 -132 84 -56 27 -111
63 -139 90 -25 25 -51 46 -58 47 -7 0 -20 2 -28 2 -8 1 -14 8 -12 17 2 17 -70
63 -83 51 -5 -4 -5 -2 -1 5 8 14 -30 43 -56 43 -10 0 -18 4 -18 9 0 4 -28 27
-62 50 -35 24 -51 32 -36 19z m111 -91 c18 -7 24 -27 6 -27 -5 0 -8 4 -5 9 3
5 -2 11 -12 13 -10 3 -29 21 -41 39 l-23 34 29 -31 c15 -17 36 -34 46 -37z
m126 -80 c0 -9 -2 -9 -5 0 -3 7 -13 9 -22 6 -14 -4 -14 -3 -2 5 16 12 30 7 29
-11z m-215 -636 c3 -4 -6 -6 -19 -3 -14 2 -25 6 -25 8 0 8 39 4 44 -5z m82
-28 c0 -1 -14 1 -31 4 -25 5 -26 7 -10 13 15 5 49 -8 41 -17z"/>
<path d="M10260 5226 c0 -2 8 -10 18 -17 15 -13 16 -12 3 4 -13 16 -21 21 -21
13z"/>
<path d="M3360 5075 c13 -14 26 -25 28 -25 3 0 -5 11 -18 25 -13 14 -26 25
-28 25 -3 0 5 -11 18 -25z"/>
<path d="M14520 5006 c0 -2 7 -7 16 -10 8 -3 12 -2 9 4 -6 10 -25 14 -25 6z"/>
<path d="M3440 4950 c6 -11 13 -20 16 -20 2 0 0 9 -6 20 -6 11 -13 20 -16 20
-2 0 0 -9 6 -20z"/>
<path d="M3467 4910 c7 -8 20 -15 29 -16 9 -1 13 1 9 4 -4 4 -10 7 -13 7 -4 0
-14 4 -22 9 -12 7 -13 6 -3 -4z"/>
<path d="M3490 4865 c0 -8 2 -15 4 -15 2 0 6 7 10 15 3 8 1 15 -4 15 -6 0 -10
-7 -10 -15z"/>
<path d="M8415 4551 c-3 -5 -2 -12 3 -15 5 -3 9 1 9 9 0 17 -3 19 -12 6z"/>
<path d="M12381 4524 c0 -11 3 -14 6 -6 3 7 2 16 -1 19 -3 4 -6 -2 -5 -13z"/>
<path d="M8447 4519 c7 -7 15 -10 18 -7 3 3 -2 9 -12 12 -14 6 -15 5 -6 -5z"/>
<path d="M8490 4490 c8 -5 20 -10 25 -10 6 0 3 5 -5 10 -8 5 -19 10 -25 10 -5
0 -3 -5 5 -10z"/>
<path d="M14640 4440 c-9 -6 -10 -10 -3 -10 6 0 15 5 18 10 8 12 4 12 -15 0z"/>
<path d="M12410 4426 c0 -2 8 -10 18 -17 15 -13 16 -12 3 4 -13 16 -21 21 -21
13z"/>
<path d="M14555 4400 c-13 -6 -15 -9 -5 -9 8 0 22 4 30 9 18 12 2 12 -25 0z"/>
<path d="M12460 4386 c0 -2 7 -7 16 -10 8 -3 12 -2 9 4 -6 10 -25 14 -25 6z"/>
<path d="M14430 4370 c-20 -6 -21 -8 -5 -8 11 0 31 4 45 8 20 6 21 8 5 8 -11
0 -31 -4 -45 -8z"/>
<path d="M14368 4353 c6 -2 18 -2 25 0 6 3 1 5 -13 5 -14 0 -19 -2 -12 -5z"/>
<path d="M14308 4343 c6 -2 18 -2 25 0 6 3 1 5 -13 5 -14 0 -19 -2 -12 -5z"/>
<path d="M12662 4298 c2 -8 -6 -13 -19 -12 -12 0 -20 -3 -17 -8 8 -13 30 -9
43 6 8 10 9 16 1 21 -6 4 -9 1 -8 -7z"/>
<path d="M16751 3856 c-58 -39 -228 -206 -256 -251 -11 -16 -52 -73 -91 -126
-40 -53 -79 -110 -88 -125 -8 -16 -43 -60 -76 -99 -60 -68 -100 -131 -100
-157 0 -7 -19 -31 -42 -53 -53 -52 -109 -137 -164 -252 -24 -51 -49 -95 -55
-99 -17 -10 -35 17 -47 73 -12 54 -72 199 -122 295 -34 64 -37 102 -13 150 30
61 33 68 33 86 0 10 14 31 30 47 58 55 37 110 -105 274 -78 90 -101 111 -123
111 -32 0 -241 -99 -261 -123 -9 -12 -11 -30 -7 -61 5 -32 1 -65 -15 -118 -32
-106 -145 -381 -179 -434 -16 -26 -42 -83 -59 -128 -43 -118 -68 -173 -95
-209 -13 -18 -31 -58 -39 -90 -8 -31 -36 -92 -61 -135 -25 -43 -54 -103 -65
-133 -10 -30 -40 -99 -66 -154 -72 -151 -85 -184 -85 -211 0 -24 31 -64 50
-64 5 0 38 25 72 56 63 57 153 105 273 146 95 33 179 99 157 123 -4 5 -1 5 5
1 8 -4 26 13 50 50 21 31 48 72 61 90 12 19 31 57 43 86 11 28 29 64 39 79 11
14 29 49 41 75 22 54 55 94 76 94 7 0 13 11 13 24 0 29 12 39 34 30 11 -4 16
-19 16 -44 0 -22 5 -42 10 -45 17 -10 13 -286 -5 -328 -8 -20 -15 -65 -15
-101 0 -47 -7 -78 -25 -117 -51 -112 -41 -181 35 -234 41 -29 49 -30 156 -32
l113 -2 83 63 c46 35 98 80 116 100 18 21 74 119 124 219 50 100 101 195 114
210 13 15 30 50 38 76 8 27 19 57 25 67 15 27 81 200 96 254 7 25 27 75 45
113 21 43 34 89 37 130 5 52 11 68 39 99 18 20 38 56 44 80 16 60 37 106 72
157 28 42 29 47 23 121 -5 63 -3 79 9 90 9 7 25 32 35 56 11 24 45 80 76 125
51 73 63 109 36 109 -5 0 -32 -15 -60 -34z"/>
<path d="M7346 3643 c-4 -4 -156 -8 -339 -9 -376 -2 -466 -10 -539 -48 -27
-14 -58 -26 -68 -26 -11 0 -22 -4 -25 -10 -3 -5 -18 -10 -32 -10 -75 0 -193
-59 -193 -97 0 -8 -13 -13 -39 -13 -42 0 -87 -35 -97 -76 -3 -12 -22 -33 -42
-47 -52 -34 -124 -166 -124 -225 0 -64 20 -139 60 -222 46 -99 157 -209 263
-262 120 -59 234 -108 252 -108 10 0 34 -8 55 -19 20 -10 49 -21 63 -24 28 -7
42 -28 33 -49 -11 -29 -154 -128 -275 -189 -71 -37 -134 -71 -141 -77 -7 -6
-96 -22 -198 -37 -102 -14 -222 -35 -268 -45 -115 -27 -225 -40 -447 -51 -344
-17 -363 -21 -311 -63 l29 -23 -44 -20 c-52 -25 -133 -43 -191 -43 -23 0 -38
-3 -34 -7 4 -5 119 -9 254 -10 207 -1 262 -4 337 -21 80 -18 120 -20 360 -17
185 2 279 7 300 15 52 22 270 25 355 6 50 -12 91 -15 125 -11 61 9 183 46 262
81 32 14 93 39 135 54 98 36 240 121 272 163 14 18 29 50 35 72 5 22 21 72 35
110 45 123 28 217 -53 287 -21 18 -41 46 -45 61 -10 41 -50 73 -106 87 -38 9
-50 17 -54 36 -7 28 -16 32 -136 68 -47 14 -125 43 -175 64 -70 30 -91 44 -93
61 -2 15 -13 24 -33 28 -31 6 -64 42 -51 54 4 4 47 19 96 33 102 30 160 32
361 11 77 -8 167 -15 199 -15 38 0 87 -10 135 -26 59 -21 88 -25 129 -21 102
11 199 93 228 194 9 32 25 74 35 93 11 19 19 39 19 44 0 5 9 29 21 53 25 52
21 74 -25 134 -28 37 -48 51 -125 82 -88 36 -130 45 -145 30z m-2211 -1663 c3
-5 1 -10 -4 -10 -6 0 -11 5 -11 10 0 6 2 10 4 10 3 0 8 -4 11 -10z"/>
<path d="M12924 3621 c-73 -45 -139 -168 -181 -336 -8 -33 -24 -78 -35 -101
-13 -26 -19 -51 -16 -69 6 -27 -1 -46 -36 -97 -10 -15 -15 -32 -11 -38 4 -6
-4 -28 -17 -48 -29 -43 -60 -124 -78 -202 -7 -30 -23 -76 -36 -102 -13 -26
-24 -55 -24 -64 0 -8 -20 -67 -45 -129 -72 -182 -119 -365 -119 -465 -1 -85
-1 -85 26 -88 31 -4 58 28 58 69 0 21 11 33 51 58 58 36 85 39 114 11 19 -18
23 -19 70 -4 28 8 113 19 190 24 118 7 157 14 247 44 107 35 226 90 328 151
30 18 82 46 115 61 99 48 199 165 301 354 21 39 82 203 94 252 15 67 12 228
-5 258 -16 28 -21 40 -38 85 -12 31 -110 135 -129 135 -5 0 -19 11 -29 24 -11
14 -34 28 -52 31 -17 4 -50 16 -72 27 -27 14 -59 20 -105 20 -36 0 -72 4 -81
8 -8 5 -63 10 -122 11 l-107 3 -58 47 c-62 50 -128 89 -152 89 -8 0 -29 -9
-46 -19z m242 -510 c5 -5 53 -11 106 -13 91 -3 98 -5 127 -32 38 -36 47 -65
61 -187 10 -91 10 -100 -10 -142 -39 -82 -128 -177 -245 -260 -153 -108 -207
-139 -310 -177 -50 -18 -95 -37 -101 -42 -7 -5 -24 -4 -39 2 -27 10 -27 11 -9
33 10 12 31 35 47 52 33 33 85 135 121 234 13 37 34 83 45 102 12 19 21 46 21
60 0 29 27 112 59 179 11 25 28 71 36 102 11 37 25 65 42 78 29 23 35 24 49
11z"/>
<path d="M13188 2982 c-13 -16 -57 -120 -97 -231 -40 -111 -82 -218 -93 -237
-11 -19 -18 -37 -15 -40 14 -14 96 24 135 63 23 24 45 43 49 43 3 0 15 10 27
23 12 12 43 37 70 55 81 56 113 156 85 268 -21 82 -112 114 -161 56z"/>
<path d="M16687 3573 c-4 -3 -7 -15 -7 -25 0 -26 24 -17 28 10 3 21 -8 29 -21
15z"/>
<path d="M9843 3558 c-11 -18 -68 -48 -90 -48 -10 0 -24 9 -31 20 -29 47 -102
0 -102 -65 0 -20 -7 -49 -15 -64 -19 -37 -45 -112 -45 -130 0 -8 -11 -26 -24
-40 -30 -32 -98 -206 -94 -242 1 -15 -3 -33 -10 -41 -6 -8 -18 -33 -26 -56
-19 -52 -231 -469 -274 -537 -17 -27 -40 -59 -52 -70 -11 -12 -20 -33 -20 -49
0 -15 -9 -39 -20 -53 -26 -33 -34 -82 -21 -129 9 -33 8 -41 -9 -59 -11 -12
-20 -26 -20 -31 0 -5 -21 -45 -46 -88 -43 -73 -46 -83 -42 -133 3 -30 1 -56
-4 -59 -12 -7 0 -24 17 -24 8 0 61 69 118 154 87 131 118 168 201 243 83 74
103 98 128 153 34 75 67 114 123 142 35 18 51 20 145 14 94 -5 113 -4 184 19
43 13 87 32 97 41 13 11 41 18 86 20 90 5 152 27 205 73 24 21 66 50 94 64 59
30 149 112 159 144 3 12 19 32 36 44 33 23 59 67 59 100 0 12 8 43 17 71 17
45 17 51 2 77 -13 22 -14 32 -6 40 9 9 9 16 0 29 -6 10 -9 30 -6 45 4 20 -6
42 -41 90 -45 64 -61 77 -96 77 -10 0 -31 5 -47 12 -15 6 -52 10 -80 9 -44 -2
-58 1 -83 22 -16 14 -51 33 -77 42 -109 38 -180 85 -218 145 -25 40 -56 52
-72 28z m258 -532 c91 6 98 5 119 -16 33 -33 21 -75 -38 -127 -26 -23 -50 -43
-54 -43 -5 0 -25 -15 -45 -33 -93 -81 -223 -157 -355 -207 -76 -28 -136 -46
-141 -41 -17 17 4 71 39 97 37 29 71 73 187 244 43 63 88 125 99 137 l20 22
37 -20 c31 -17 48 -19 132 -13z"/>
<path d="M9924 2886 c-43 -45 -80 -104 -71 -113 8 -7 66 25 125 69 40 30 52
45 50 61 -2 16 -11 23 -31 25 -23 3 -38 -5 -73 -42z"/>
<path d="M8681 3340 c-14 -13 -38 -20 -62 -20 -53 0 -97 -21 -140 -67 -56 -59
-69 -84 -69 -130 0 -28 -5 -45 -16 -51 -9 -5 -24 -31 -34 -58 -114 -311 -110
-304 -225 -304 -38 0 -96 -7 -129 -14 l-58 -14 5 28 c4 15 24 53 46 85 41 59
121 276 121 329 0 38 -32 95 -79 140 -55 53 -117 60 -210 22 -89 -36 -102 -50
-101 -105 2 -74 -21 -172 -51 -214 -15 -21 -30 -57 -34 -80 -4 -23 -18 -60
-32 -82 -58 -94 -223 -386 -223 -394 0 -5 -3 -11 -7 -13 -14 -6 -48 -62 -93
-153 -25 -49 -59 -110 -77 -134 -40 -53 -41 -69 -8 -77 28 -7 122 35 118 53
-2 10 89 93 101 93 14 0 4 -25 -25 -65 -18 -26 -29 -50 -26 -59 10 -24 25 -19
42 13 8 16 18 31 22 33 15 6 63 88 63 106 0 10 -6 24 -12 31 -11 11 -10 13 0
7 21 -12 51 4 67 35 21 39 45 38 45 -2 0 -30 1 -31 23 -17 12 9 37 44 55 79
19 35 45 75 58 90 13 14 24 30 24 37 0 7 16 30 36 52 45 50 69 51 135 5 40
-27 61 -35 95 -35 27 0 47 -5 50 -13 7 -19 -98 -236 -171 -352 -73 -118 -119
-205 -111 -213 11 -10 77 27 70 40 -4 6 -3 8 4 4 6 -3 28 15 50 40 29 34 45
45 57 40 10 -3 15 -12 11 -21 -9 -24 6 -18 58 25 43 36 52 39 86 34 37 -6 39
-5 89 57 28 35 65 93 83 129 18 36 47 87 65 114 18 26 33 52 33 58 0 5 22 41
49 81 26 40 61 97 76 127 15 30 46 75 69 100 42 45 92 153 99 215 4 31 78 213
103 252 8 12 14 31 14 43 0 11 7 20 15 20 33 0 12 30 -42 59 -66 36 -70 37
-102 11z"/>
<path d="M10865 3353 c-59 -15 -105 -85 -105 -161 0 -26 -10 -51 -35 -86 -21
-29 -39 -70 -46 -105 -6 -31 -19 -72 -29 -91 -9 -19 -20 -52 -23 -72 -3 -21
-29 -84 -56 -141 -28 -56 -51 -107 -51 -113 0 -5 -16 -26 -36 -45 -44 -41 -64
-85 -64 -138 0 -23 -13 -66 -31 -105 -22 -47 -30 -76 -26 -95 5 -24 0 -34 -33
-64 -22 -20 -40 -45 -40 -56 0 -11 -4 -23 -10 -26 -5 -3 -10 -22 -10 -42 0
-20 -6 -44 -14 -52 -8 -9 -23 -40 -34 -68 l-20 -53 31 0 c18 0 40 9 54 22 21
19 27 20 44 10 17 -11 24 -11 36 -1 32 28 104 130 183 264 46 77 92 150 103
162 26 30 78 53 139 62 45 7 56 6 80 -12 24 -18 32 -19 65 -10 21 6 65 16 98
21 70 11 305 108 368 151 75 51 117 105 117 150 0 22 6 44 15 51 8 6 17 22 21
33 3 12 13 29 21 38 9 11 16 52 20 118 l6 102 -25 -6 c-29 -7 -47 10 -29 28 6
6 11 17 11 24 0 23 -101 111 -170 147 -71 37 -251 86 -317 86 -21 0 -50 8 -64
18 -100 67 -98 66 -144 55z m319 -429 c69 -18 93 -35 112 -81 40 -94 -1 -133
-212 -203 -84 -28 -179 -54 -210 -57 l-57 -6 43 79 c24 43 52 90 62 103 10 13
18 36 18 51 0 19 15 43 49 78 44 46 54 52 91 52 23 0 70 -7 104 -16z"/>
<path d="M11065 2807 c-7 -18 -17 -45 -20 -60 l-7 -26 63 25 c98 40 106 50 60
77 -47 28 -80 22 -96 -16z"/>
<path d="M9080 3326 c-94 -36 -100 -42 -100 -89 0 -52 -33 -179 -54 -211 -9
-15 -14 -42 -13 -73 2 -42 -3 -55 -34 -98 -47 -64 -70 -111 -107 -215 -37
-104 -105 -255 -121 -264 -6 -4 -11 -19 -11 -32 0 -14 -16 -62 -36 -107 -37
-85 -64 -186 -64 -246 0 -34 0 -34 21 -15 11 10 41 50 66 89 26 38 48 72 50
75 2 2 12 -1 23 -8 16 -10 23 -7 45 20 14 17 29 44 32 60 3 15 33 59 67 97 33
38 76 99 94 135 19 37 44 79 56 94 13 15 55 74 93 132 39 58 85 119 103 135
40 38 66 81 75 125 9 45 49 124 80 162 40 47 34 88 -21 140 -25 23 -59 55 -75
71 -16 15 -40 27 -53 27 -14 0 -28 5 -31 10 -8 13 -20 11 -85 -14z"/>
<path d="M14705 3301 c-5 -5 -96 -15 -202 -22 -156 -10 -202 -10 -246 1 -72
17 -116 7 -154 -33 -32 -34 -73 -106 -73 -130 0 -8 8 -21 18 -31 23 -20 26
-70 7 -106 -7 -14 -17 -44 -21 -65 -4 -22 -24 -74 -44 -115 -20 -41 -45 -100
-54 -130 -25 -78 -133 -297 -173 -349 -38 -51 -42 -82 -12 -112 51 -51 73 -54
379 -51 261 3 287 5 316 23 17 10 40 19 51 19 10 0 36 15 56 34 42 38 47 70
20 116 -22 38 -68 44 -281 35 -157 -7 -168 -6 -184 12 -15 16 -16 25 -7 59 14
50 36 93 61 121 19 20 30 22 127 22 137 0 337 39 364 72 20 25 22 53 5 66 -25
20 -146 36 -265 35 -134 -1 -147 5 -119 56 8 15 26 50 39 77 25 54 73 100 122
120 17 7 103 15 192 19 89 3 173 10 187 16 14 5 59 42 99 82 l74 74 -62 42
c-51 35 -70 43 -106 42 -24 0 -57 2 -74 5 -16 4 -34 2 -40 -4z"/>
<path d="M11815 3201 c-36 -15 -52 -44 -90 -161 -20 -63 -52 -160 -70 -215
-19 -55 -37 -122 -40 -150 -4 -27 -15 -68 -26 -90 -10 -22 -23 -65 -29 -95 -6
-30 -15 -78 -21 -106 -9 -40 -8 -65 6 -125 22 -103 42 -131 112 -164 32 -15
75 -36 96 -46 33 -17 47 -18 90 -10 76 14 282 116 309 153 13 16 54 63 91 104
38 41 77 96 88 122 11 26 28 65 39 87 131 279 137 294 161 391 21 86 21 98 3
227 l-7 47 -78 0 c-81 0 -109 -13 -109 -48 1 -9 -20 -57 -44 -107 -47 -93 -72
-162 -85 -230 -4 -22 -29 -78 -54 -125 -26 -47 -56 -105 -67 -130 -39 -83 -45
-92 -84 -137 -45 -52 -102 -83 -150 -83 -34 0 -35 0 -41 53 -3 28 -2 92 3 140
11 96 1 79 163 318 21 31 41 69 45 85 4 15 13 39 20 53 37 70 0 189 -71 228
-41 23 -120 30 -160 14z"/>
<path d="M7535 2998 c-107 -66 -136 -77 -211 -84 -75 -7 -91 -4 -180 37 -29
14 -63 19 -125 19 -46 0 -100 5 -119 10 -54 16 -308 25 -294 11 6 -6 39 -19
75 -27 35 -9 73 -25 85 -35 25 -23 76 -39 122 -39 43 0 62 -10 152 -85 116
-97 176 -166 217 -250 40 -84 43 -85 85 -9 13 23 40 71 61 107 20 36 37 72 37
80 0 9 11 29 25 45 14 17 25 32 25 35 0 3 13 27 30 54 23 38 76 166 67 162 -1
0 -24 -14 -52 -31z"/>
<path d="M14890 2984 c-25 -8 -94 -19 -155 -24 -235 -20 -256 -23 -281 -42
-51 -40 -38 -46 136 -64 108 -11 190 -71 190 -141 0 -38 -46 -113 -85 -139
-21 -14 -123 -35 -260 -53 -124 -16 -119 -28 15 -33 110 -4 132 -8 188 -33 67
-30 81 -27 82 17 0 9 5 20 10 23 6 3 10 13 10 22 0 8 9 26 20 40 11 14 20 35
20 47 0 11 16 47 35 79 20 33 42 75 51 95 34 79 83 222 76 221 -4 -1 -27 -7
-52 -15z"/>
<path d="M7544 2183 c-11 -16 -27 -43 -35 -60 -7 -18 -20 -33 -28 -33 -8 0
-12 -3 -8 -6 14 -14 48 10 76 55 31 48 38 71 23 71 -5 0 -17 -12 -28 -27z"/>
<path d="M7450 2038 c0 -4 4 -8 9 -8 6 0 12 4 15 8 3 5 -1 9 -9 9 -8 0 -15 -4
-15 -9z"/>
<path d="M3294 3708 l-19 -23 23 19 c21 18 27 26 19 26 -2 0 -12 -10 -23 -22z"/>
<path d="M3139 3553 c-13 -16 -12 -17 4 -4 16 13 21 21 13 21 -2 0 -10 -8 -17
-17z"/>
<path d="M3039 3453 c-13 -16 -12 -17 4 -4 9 7 17 15 17 17 0 8 -8 3 -21 -13z"/>
<path d="M4778 2423 c7 -3 16 -2 19 1 4 3 -2 6 -13 5 -11 0 -14 -3 -6 -6z"/>
</g>
</svg>
